<svg width="17" height="17" viewBox="0 0 17 17" fill="none" xmlns="http://www.w3.org/2000/svg">
<path d="M13 6C13 3.53125 10.9688 1.5 8.5 1.5C6 1.5 4 3.53125 4 6C4 6.40625 4.125 7 4.46875 7.8125C4.78125 8.5625 5.25 9.4375 5.78125 10.3125C6.6875 11.75 7.71875 13.125 8.5 14.125C9.25 13.125 10.2812 11.75 11.1875 10.3125C11.7188 9.4375 12.1875 8.5625 12.5 7.8125C12.8438 7 13 6.40625 13 6ZM14.5 6C14.5 8.75 10.8438 13.5938 9.21875 15.625C8.84375 16.0938 8.125 16.0938 7.75 15.625C6.15625 13.5938 2.5 8.75 2.5 6C2.5 2.6875 5.1875 0 8.5 0C11.8125 0 14.5 2.6875 14.5 6ZM9.5 6C9.5 5.46875 9.03125 5 8.5 5C7.9375 5 7.5 5.46875 7.5 6C7.5 6.5625 7.9375 7 8.5 7C9.03125 7 9.5 6.5625 9.5 6ZM6 6C6 5.125 6.46875 4.3125 7.25 3.84375C8 3.40625 8.96875 3.40625 9.75 3.84375C10.5 4.3125 11 5.125 11 6C11 6.90625 10.5 7.71875 9.75 8.1875C8.96875 8.625 8 8.625 7.25 8.1875C6.46875 7.71875 6 6.90625 6 6Z" fill="#19B536"/>
</svg>
