<svg width="80" height="80" viewBox="0 0 80 80" fill="none" xmlns="http://www.w3.org/2000/svg">
<circle opacity="0.2" cx="40" cy="40" r="40" fill="#C4C4C4"/>
<path d="M40 40.5C38.2031 40.5 36.5625 39.5625 35.6641 38C34.7656 36.4766 34.7656 34.5625 35.6641 33C36.5625 31.4766 38.2031 30.5 40 30.5C41.7578 30.5 43.3984 31.4766 44.2969 33C45.1953 34.5625 45.1953 36.4766 44.2969 38C43.3984 39.5625 41.7578 40.5 40 40.5ZM38.2031 42.375H41.7578C45.625 42.375 48.75 45.5 48.75 49.3672C48.75 49.9922 48.2031 50.5 47.5781 50.5H32.3828C31.7578 50.5 31.25 49.9922 31.25 49.3672C31.25 45.5 34.3359 42.375 38.2031 42.375Z" fill="#D0D5DD"/>
</svg>
