<svg width="17" height="16" viewBox="0 0 17 16" fill="none" xmlns="http://www.w3.org/2000/svg">
<path d="M13.5 1.5H3.5C3.21875 1.5 3 1.75 3 2V14C3 14.2812 3.21875 14.5 3.5 14.5H13.5C13.75 14.5 14 14.2812 14 14V2C14 1.75 13.75 1.5 13.5 1.5ZM3.5 0H13.5C14.5938 0 15.5 0.90625 15.5 2V14C15.5 15.125 14.5938 16 13.5 16H3.5C2.375 16 1.5 15.125 1.5 14V2C1.5 0.90625 2.375 0 3.5 0ZM4.5 12.5C4.5 12.25 4.71875 12 5 12H12C12.25 12 12.5 12.25 12.5 12.5C12.5 12.7812 12.25 13 12 13H5C4.71875 13 4.5 12.7812 4.5 12.5ZM5.53125 7C5.6875 8 6.34375 8.8125 7.21875 9.21875C7 8.6875 6.8125 7.96875 6.75 7H5.53125ZM8.5 9.5H8.46875H8.5C8.5625 9.40625 8.65625 9.25 8.78125 9C8.96875 8.5625 9.15625 7.9375 9.21875 7H7.75C7.8125 7.9375 8 8.5625 8.1875 9C8.3125 9.25 8.40625 9.40625 8.46875 9.5H8.5ZM11.4375 7H10.2188C10.1562 7.96875 9.96875 8.6875 9.78125 9.21875C10.625 8.8125 11.2812 8 11.4375 7ZM11.4375 6C11.2812 5.03125 10.625 4.21875 9.78125 3.8125C9.96875 4.34375 10.1875 5.0625 10.2188 6H11.4375ZM8.5 3.5H8.46875C8.40625 3.625 8.3125 3.78125 8.1875 4.03125C8 4.46875 7.8125 5.09375 7.75 6H9.21875C9.15625 5.09375 8.96875 4.46875 8.78125 4.03125C8.6875 3.78125 8.5625 3.625 8.5 3.5ZM5.53125 6H6.75C6.8125 5.0625 7 4.34375 7.21875 3.8125C6.34375 4.21875 5.6875 5.03125 5.53125 6ZM8.5 10.5C7.0625 10.5 5.75 9.75 5.03125 8.5C4.3125 7.28125 4.3125 5.75 5.03125 4.5C5.75 3.28125 7.0625 2.5 8.5 2.5C9.90625 2.5 11.2188 3.28125 11.9375 4.5C12.6562 5.75 12.6562 7.28125 11.9375 8.5C11.2188 9.75 9.90625 10.5 8.5 10.5Z" fill="#19B536"/>
</svg>
