<svg width="16" height="16" viewBox="0 0 16 16" fill="none" xmlns="http://www.w3.org/2000/svg">
<g clip-path="url(#clip0_1318_3259)">
<path d="M0.5 8.00009C0.5 11.2751 2.6 14.0501 5.5 15.0751V0.925095C2.6 1.95009 0.5 4.72509 0.5 8.00009Z" fill="#00A692"/>
<path d="M15.5 8.00009C15.5 4.72509 13.425 1.95009 10.5 0.925095V15.0751C13.425 14.0501 15.5 11.2751 15.5 8.00009Z" fill="#00A692"/>
<path d="M5.5 15.075C6.275 15.35 7.125 15.5 8 15.5C8.875 15.5 9.725 15.35 10.5 15.075V0.925C9.725 0.65 8.875 0.5 8 0.5C7.125 0.5 6.275 0.65 5.5 0.925V15.075Z" fill="white"/>
</g>
<defs>
<clipPath id="clip0_1318_3259">
<rect width="16" height="16" fill="white"/>
</clipPath>
</defs>
</svg>
