<svg width="16" height="16" viewBox="0 0 16 16" fill="none" xmlns="http://www.w3.org/2000/svg">
<path d="M4 1.5C3.71875 1.5 3.5 1.75 3.5 2V14C3.5 14.2812 3.71875 14.5 4 14.5H11C11.25 14.5 11.5 14.2812 11.5 14V2C11.5 1.75 11.25 1.5 11 1.5H4ZM2 2C2 0.90625 2.875 0 4 0H11C12.0938 0 13 0.90625 13 2V14C13 15.125 12.0938 16 11 16H4C2.875 16 2 15.125 2 14V2ZM6.5 12.5H8.5C8.75 12.5 9 12.75 9 13C9 13.2812 8.75 13.5 8.5 13.5H6.5C6.21875 13.5 6 13.2812 6 13C6 12.75 6.21875 12.5 6.5 12.5Z" fill="#19B536"/>
</svg>
