<svg width="20" height="20" viewBox="0 0 20 20" fill="none" xmlns="http://www.w3.org/2000/svg">
<path d="M5.31834 4.97203C6.64646 3.90792 8.29817 3.32932 10 3.33203C11.7708 3.33203 13.3983 3.94536 14.6817 4.97203L15.8925 3.7612L17.0708 4.93953L15.86 6.15036C16.7414 7.25382 17.2934 8.58372 17.4523 9.98702C17.6113 11.3903 17.3708 12.81 16.7586 14.0826C16.1463 15.3553 15.1872 16.4292 13.9915 17.1809C12.7959 17.9325 11.4123 18.3312 10 18.3312C8.58773 18.3312 7.20415 17.9325 6.0085 17.1809C4.81284 16.4292 3.85369 15.3553 3.24144 14.0826C2.62918 12.81 2.3887 11.3903 2.54767 9.98702C2.70663 8.58372 3.25858 7.25382 4.14 6.15036L2.92917 4.94036L4.1075 3.76203L5.31834 4.97286V4.97203ZM10 16.6654C10.766 16.6654 11.5246 16.5145 12.2323 16.2213C12.9401 15.9282 13.5831 15.4985 14.1248 14.9568C14.6665 14.4151 15.0961 13.7721 15.3893 13.0644C15.6825 12.3566 15.8333 11.5981 15.8333 10.832C15.8333 10.066 15.6825 9.30744 15.3893 8.59971C15.0961 7.89198 14.6665 7.24892 14.1248 6.70724C13.5831 6.16557 12.9401 5.73589 12.2323 5.44273C11.5246 5.14958 10.766 4.9987 10 4.9987C8.45291 4.9987 6.96918 5.61328 5.87521 6.70724C4.78125 7.8012 4.16667 9.28493 4.16667 10.832C4.16667 12.3791 4.78125 13.8629 5.87521 14.9568C6.96918 16.0508 8.45291 16.6654 10 16.6654ZM10.8333 9.9987H13.3333L9.16667 15.4154V11.6654H6.66667L10.8333 6.24453V9.9987ZM6.66667 0.832031H13.3333V2.4987H6.66667V0.832031Z" fill="#999999"/>
</svg>
