<svg width="48" height="48" viewBox="0 0 48 48" fill="none" xmlns="http://www.w3.org/2000/svg">
<path d="M32 23C32 24.125 31.0625 25.1875 29.5625 26C27.375 27.25 23.875 28 20 28C16.25 28 12.9375 27.3125 10.6875 26.1875C10.5625 26.125 10.5 26.0625 10.375 26C8.875 25.1875 8 24.125 8 23C8 20.25 13.3125 18 20 18C26.625 18 32 20.25 32 23ZM20 30C23.5 30 26.75 29.4375 29.25 28.4375C30.25 28 31.1875 27.4375 32 26.8125V29C32 30.125 31.0625 31.1875 29.5625 32C29.4375 32.0625 29.375 32.125 29.25 32.1875C27 33.3125 23.6875 34 20 34C16.0625 34 12.5625 33.25 10.375 32C8.875 31.1875 8 30.125 8 29V26.8125C8.75 27.4375 9.6875 28 10.6875 28.4375C13.1875 29.4375 16.4375 30 20 30ZM32 32.8125V35C32 37.8125 26.625 40 20 40C13.3125 40 8 37.8125 8 35V32.8125C8.75 33.4375 9.6875 34 10.6875 34.4375C13.1875 35.4375 16.4375 36 20 36C23.5 36 26.75 35.4375 29.25 34.4375C30.25 34 31.1875 33.4375 32 32.8125Z" fill="#000759"/>
<path d="M40 13C40 14.1875 39.0625 15.1875 37.5625 16C35.75 17.0625 33.0625 17.75 29.9375 17.9375C29.6875 17.875 29.4375 17.75 29.25 17.625C26.75 16.625 23.5 16 20 16C19.4375 16 18.9375 16.0625 18.4375 16.0625C18.4375 16.0625 18.375 16.0625 18.375 16C16.875 15.1875 16 14.1875 16 13C16 10.25 21.3125 8 28 8C34.625 8 40 10.25 40 13ZM34 25.4375C35.125 25.125 36.25 24.8125 37.25 24.4375C38.25 24 39.1875 23.4375 40 22.8125V25C40 26.875 37.5625 28.5 34 29.375V25.4375ZM34 23C34 21.6875 33.3125 20.5625 32.4375 19.6875C34.25 19.4375 35.875 19 37.25 18.4375C38.25 18 39.1875 17.4375 40 16.8125V19C40 20.125 39.0625 21.1875 37.5625 22C37.4375 22.0625 37.375 22.125 37.25 22.1875C36.3125 22.6875 35.1875 23.0625 34 23.375V23Z" fill="#19B536"/>
<path d="M37 31.8711L34.207 34.8008C34.1875 34.8203 34.1875 34.8398 34.1875 34.8594C34.1875 34.8984 34.2266 34.957 34.2656 34.957H35.9062C36.1602 34.957 36.375 35.1523 36.375 35.4258V38.6875H37.625V35.4062C37.625 35.1523 37.8203 34.9375 38.0938 34.9375H39.7148C39.7539 34.9375 39.8125 34.8984 39.8125 34.8594C39.8125 34.8398 39.793 34.8203 39.7734 34.8008L37 31.8711ZM36.3945 31.1484C36.5508 30.9727 36.7656 30.875 37 30.875C37.2148 30.875 37.4297 30.9727 37.5859 31.1484L40.457 34.1562C40.6328 34.332 40.75 34.5859 40.75 34.8594C40.75 35.4258 40.2812 35.8945 39.7148 35.8945H38.5625V38.6875C38.5625 39.2148 38.1328 39.625 37.625 39.625H36.375C35.8477 39.625 35.4375 39.2148 35.4375 38.6875V35.875H34.2656C33.6992 35.875 33.25 35.4258 33.25 34.8594C33.25 34.5859 33.3477 34.332 33.5234 34.1562L36.3945 31.1484Z" fill="#19B536"/>
</svg>
