<svg width="17" height="16" viewBox="0 0 17 16" fill="none" xmlns="http://www.w3.org/2000/svg">
<path d="M14.1875 2.90625C14.4062 3.1875 14.375 3.59375 14.125 3.84375C13.7812 4.1875 13.25 4.125 12.9375 3.75C11.75 2.375 9.96875 1.5 8.03125 1.5C4.4375 1.5 1.53125 4.4375 1.53125 8V8.78125C1.53125 8.96875 1.5 9.1875 1.5 9.375C1.46875 9.75 1.15625 10 0.78125 10C0.34375 10 0 9.59375 0 9.15625C0 9.03125 0.03125 8.90625 0.03125 8.78125V8C0.03125 3.59375 3.59375 0 8.03125 0C10.5 0 12.7188 1.15625 14.1875 2.90625ZM14.7812 5.71875C15.1875 5.53125 15.6875 5.71875 15.8125 6.15625C15.9375 6.75 16.0312 7.375 16.0312 8.03125V8.78125C16.0312 8.96875 16 9.125 16 9.3125C16 9.6875 15.6875 10 15.2812 10C14.8438 10 14.5 9.65625 14.5 9.21875C14.5 9.09375 14.5 8.9375 14.5 8.78125V8C14.5 7.53125 14.4688 7.09375 14.375 6.65625C14.2812 6.28125 14.4375 5.875 14.7812 5.71875ZM8.03125 2.5C11.0625 2.5 13.5312 4.96875 13.5312 8V8.78125C13.5312 9.65625 13.4688 10.5312 13.375 11.375C13.3125 11.75 13 12 12.625 12C12.1875 12 11.8125 11.5938 11.875 11.1562C11.9688 10.375 12 9.5625 12 8.78125V8C12 5.8125 10.2188 4 8 4C7.65625 4 7.3125 4.0625 6.96875 4.15625C6.625 4.25 6.28125 4.15625 6.0625 3.90625C5.71875 3.53125 5.84375 2.9375 6.3125 2.78125C6.84375 2.59375 7.4375 2.5 8.03125 2.5ZM4.71875 4.65625C4.96875 4.96875 4.96875 5.40625 4.71875 5.71875C4.28125 6.375 4.03125 7.15625 4.03125 8V8.78125C4.03125 9.6875 3.90625 10.5938 3.71875 11.4688C3.625 11.7812 3.34375 12 3.03125 12C2.53125 12 2.15625 11.5312 2.28125 11.0312C2.4375 10.3125 2.53125 9.5625 2.53125 8.78125V8C2.53125 6.75 2.9375 5.5625 3.65625 4.65625C3.9375 4.3125 4.4375 4.34375 4.71875 4.65625ZM8.03125 5C9.6875 5 11.0312 6.34375 11.0312 8V8.78125C11.0312 10.0312 10.9062 11.2812 10.6562 12.4688C10.5938 12.7812 10.3125 13 10 13C9.5625 13 9.21875 12.5938 9.3125 12.1562C9.53125 11.0625 9.65625 9.9375 9.65625 8.78125V8C9.65625 7.125 8.90625 6.375 8.03125 6.375C7.125 6.375 6.40625 7.125 6.40625 8V8.78125C6.40625 10.0625 6.21875 11.3125 5.90625 12.5312C5.8125 12.8125 5.5625 13 5.25 13C4.78125 13 4.46875 12.5625 4.59375 12.0938C4.875 11.0312 5.03125 9.90625 5.03125 8.78125V8C5.03125 6.34375 6.375 5 8.03125 5ZM8.78125 8V8.78125C8.78125 10.8438 8.375 12.875 7.65625 14.8125L7.46875 15.2812C7.3125 15.6562 6.875 15.875 6.5 15.7188C6.125 15.5625 5.90625 15.125 6.0625 14.75L6.25 14.2812C6.9375 12.5312 7.28125 10.6562 7.28125 8.78125V8C7.28125 7.59375 7.59375 7.25 8.03125 7.25C8.4375 7.25 8.78125 7.59375 8.78125 8Z" fill="white"/>
</svg>
