<svg width="8" height="10" viewBox="0 0 8 10" fill="none" xmlns="http://www.w3.org/2000/svg">
<path d="M3.64844 9.48828L0.367188 6.05078C0.191406 5.85547 0.191406 5.5625 0.386719 5.38672C0.582031 5.21094 0.875 5.21094 1.05078 5.40625L3.53125 8.00391V1.34375C3.53125 1.08984 3.72656 0.875 4 0.875C4.25391 0.875 4.46875 1.08984 4.46875 1.34375V8.00391L6.92969 5.40625C7.10547 5.21094 7.41797 5.21094 7.59375 5.38672C7.78906 5.5625 7.78906 5.85547 7.61328 6.05078L4.33203 9.48828C4.23438 9.58594 4.11719 9.625 4 9.625C3.86328 9.625 3.74609 9.58594 3.64844 9.48828Z" fill="#9CA3AF"/>
</svg>
