<svg width="16" height="16" viewBox="0 0 16 16" fill="none" xmlns="http://www.w3.org/2000/svg">
<g id="bi:eye-slash">
<g id="Group">
<path id="Vector" d="M13.359 11.238C15.06 9.72 16 8 16 8C16 8 13 2.5 7.99996 2.5C7.03955 2.50331 6.09002 2.70342 5.20996 3.088L5.97996 3.859C6.6274 3.62315 7.31091 3.50168 7.99996 3.5C10.12 3.5 11.879 4.668 13.168 5.957C13.7883 6.58069 14.3444 7.26513 14.828 8C14.77 8.087 14.706 8.183 14.633 8.288C14.298 8.768 13.803 9.408 13.168 10.043C13.003 10.208 12.831 10.371 12.651 10.529L13.359 11.238Z" fill="#98A2B3"/>
<path id="Vector_2" d="M11.2969 9.176C11.52 8.55185 11.5613 7.87715 11.416 7.23042C11.2707 6.5837 10.9448 5.99153 10.476 5.52282C10.0073 5.05412 9.41517 4.72814 8.76845 4.58283C8.12172 4.43752 7.44702 4.47885 6.82287 4.702L7.64587 5.525C8.03018 5.47 8.42202 5.50525 8.79034 5.62797C9.15866 5.75068 9.49334 5.9575 9.76786 6.23201C10.0424 6.50653 10.2492 6.84121 10.3719 7.20953C10.4946 7.57785 10.5299 7.96969 10.4749 8.354L11.2969 9.176ZM8.35387 10.475L9.17587 11.297C8.55171 11.5202 7.87701 11.5615 7.23029 11.4162C6.58356 11.2709 5.99139 10.9449 5.52269 10.4762C5.05398 10.0075 4.72801 9.41531 4.5827 8.76858C4.43738 8.12186 4.47871 7.44716 4.70187 6.823L5.52487 7.646C5.46986 8.03031 5.50511 8.42215 5.62783 8.79047C5.75055 9.1588 5.95736 9.49347 6.23188 9.76799C6.5064 10.0425 6.84107 10.2493 7.2094 10.372C7.57772 10.4948 7.96956 10.53 8.35387 10.475Z" fill="#98A2B3"/>
<path id="Vector_3" d="M3.35 5.47C3.17 5.63 2.997 5.792 2.832 5.957C2.21165 6.58069 1.65552 7.26513 1.172 8L1.367 8.288C1.702 8.768 2.197 9.408 2.832 10.043C4.121 11.332 5.881 12.5 8 12.5C8.716 12.5 9.39 12.367 10.02 12.14L10.79 12.912C9.90994 13.2966 8.9604 13.4967 8 13.5C3 13.5 0 8 0 8C0 8 0.939 6.279 2.641 4.762L3.349 5.471L3.35 5.47ZM13.646 14.354L1.646 2.354L2.354 1.646L14.354 13.646L13.646 14.354Z" fill="#98A2B3"/>
</g>
</g>
</svg>
