<svg width="24" height="24" viewBox="0 0 24 24" fill="none" xmlns="http://www.w3.org/2000/svg">
<rect width="24" height="24" fill="white"/>
<path d="M15.5156 10.0391L13.0547 12.5L15.5156 14.9844C15.8203 15.2656 15.8203 15.7578 15.5156 16.0391C15.2344 16.3438 14.7422 16.3438 14.4609 16.0391L12 13.5781L9.51562 16.0391C9.23438 16.3438 8.74219 16.3438 8.46094 16.0391C8.15625 15.7578 8.15625 15.2656 8.46094 14.9844L10.9219 12.5L8.46094 10.0391C8.15625 9.75781 8.15625 9.26562 8.46094 8.98438C8.74219 8.67969 9.23438 8.67969 9.51562 8.98438L12 11.4453L14.4609 8.98438C14.7422 8.67969 15.2344 8.67969 15.5156 8.98438C15.8203 9.26562 15.8203 9.75781 15.5156 10.0391Z" fill="black"/>
</svg>
