<svg width="20" height="20" viewBox="0 0 20 20" fill="none" xmlns="http://www.w3.org/2000/svg">
<g id="maki:caution">
<path id="Vector" d="M1.45721 15.856L9.11987 1.85462C9.20617 1.6966 9.33342 1.56474 9.48826 1.47287C9.6431 1.381 9.81983 1.33252 9.99987 1.33252C10.1799 1.33252 10.3566 1.381 10.5115 1.47287C10.6663 1.56474 10.7936 1.6966 10.8799 1.85462L18.5425 15.856C18.626 16.0084 18.6682 16.18 18.6651 16.3538C18.662 16.5276 18.6136 16.6976 18.5248 16.847C18.436 16.9964 18.3097 17.1201 18.1585 17.2059C18.0073 17.2916 17.8364 17.3364 17.6625 17.336H2.33721C2.16338 17.3364 1.99244 17.2916 1.84123 17.2059C1.69002 17.1201 1.56377 16.9964 1.47494 16.847C1.3861 16.6976 1.33774 16.5276 1.33463 16.3538C1.33152 16.18 1.37377 16.0084 1.45721 15.856ZM11.0665 10.6666L11.6039 7.44262C11.6197 7.34716 11.6146 7.24939 11.5889 7.15609C11.5632 7.0628 11.5175 6.97623 11.4549 6.90239C11.3924 6.82855 11.3145 6.76921 11.2267 6.72849C11.1389 6.68778 11.0433 6.66667 10.9465 6.66662H9.05321C8.95643 6.66667 8.86083 6.68778 8.77304 6.72849C8.68525 6.76921 8.60737 6.82855 8.54482 6.90239C8.48227 6.97623 8.43655 7.0628 8.41083 7.15609C8.3851 7.24939 8.38 7.34716 8.39587 7.44262L8.93321 10.6666H11.0665ZM11.4665 13.2C11.4665 12.811 11.312 12.4379 11.037 12.1629C10.7619 11.8878 10.3889 11.7333 9.99987 11.7333C9.61089 11.7333 9.23784 11.8878 8.96278 12.1629C8.68773 12.4379 8.53321 12.811 8.53321 13.2C8.53321 13.5889 8.68773 13.962 8.96278 14.237C9.23784 14.5121 9.61089 14.6666 9.99987 14.6666C10.3889 14.6666 10.7619 14.5121 11.037 14.237C11.312 13.962 11.4665 13.5889 11.4665 13.2Z" fill="#000759"/>
</g>
</svg>
