<svg width="146" height="162" viewBox="0 0 146 162" fill="none" xmlns="http://www.w3.org/2000/svg">
<path d="M19.9791 25.183L20.3507 25.0619L20.245 25.4337C20.1651 25.7256 20.1731 26.0346 20.2679 26.322L20.3796 26.6824L20.0172 26.5879C19.7243 26.4969 19.41 26.501 19.1196 26.5997L18.7591 26.7114L18.8741 26.3508C18.9491 26.0583 18.9412 25.7507 18.8512 25.4625L18.7394 25.102L19.1019 25.1966C19.3897 25.2748 19.6938 25.2701 19.9791 25.183Z" fill="#E0E0E0"/>
<path d="M112.706 73.7078L113.321 73.516L113.162 74.1406C113.021 74.6414 113.03 75.1726 113.189 75.6681L113.381 76.2832L112.756 76.1238C112.256 75.9777 111.723 75.9871 111.228 76.1508L110.613 76.3426L110.773 75.7181C110.914 75.2173 110.904 74.6861 110.746 74.1905L110.545 73.5644L111.178 73.7349C111.68 73.8699 112.21 73.8606 112.706 73.7078Z" fill="#E0E0E0"/>
<path d="M126.606 56.5536L127.635 56.224L127.365 57.2816C127.127 58.1242 127.143 59.0182 127.411 59.8517L127.741 60.8811L126.683 60.6104C125.84 60.3781 124.947 60.3942 124.113 60.6568L123.084 60.9864L123.363 59.94C123.593 59.0921 123.574 58.1959 123.308 57.3587L122.978 56.3293L124.025 56.6092C124.873 56.8391 125.769 56.8197 126.606 56.5536Z" fill="#E0E0E0"/>
<path d="M26.0671 76.7043L26.6258 75.7655L27.1041 76.7464C27.4942 77.5285 28.0952 78.1859 28.8393 78.6445L29.7782 79.2033L28.8065 79.6927C28.0161 80.0705 27.3555 80.6744 26.9084 81.4279L26.3404 82.3556L25.8621 81.3747C25.4719 80.5926 24.8709 79.9352 24.1269 79.4766L23.188 78.9178L24.169 78.4395C24.951 78.0494 25.6085 77.4484 26.0671 76.7043Z" fill="#E0E0E0"/>
<path d="M43.358 39.3145C40.4718 39.322 37.6154 39.2291 34.7108 39.3277C33.4691 39.332 32.2433 39.6072 31.119 40.134C29.9947 40.6609 28.9988 41.4267 28.2009 42.3781C27.426 43.3872 26.8663 44.5446 26.5565 45.7787C26.2466 47.0127 26.1932 48.2972 26.3994 49.5528C27.1762 57.733 29.4866 66.6183 35.6716 72.4217C39.9594 76.2959 45.5685 78.3803 51.3457 78.2465C51.8192 78.2348 52.2694 78.0385 52.6 77.6993C52.9307 77.3602 53.1156 76.9052 53.1153 76.4315C53.1149 75.9578 52.9294 75.5031 52.5983 75.1644C52.2672 74.8257 51.8168 74.63 51.3433 74.6189C46.9772 74.7449 42.7 73.3696 39.2256 70.7226C36.382 68.3108 34.1969 65.2168 32.8749 61.7303C31.5697 58.4214 30.6942 54.9588 30.2699 51.4272C29.8579 49.7104 29.8186 47.9253 30.1549 46.1921C30.4839 45.2456 31.0997 44.4252 31.9167 43.8451C32.7337 43.265 33.7112 42.954 34.7132 42.9553C37.5956 42.8753 40.4279 43.0072 43.3697 42.9532C43.8522 42.9517 44.3144 42.7585 44.6545 42.4162C44.9946 42.0739 45.1848 41.6105 45.1832 41.1279C45.1816 40.6454 44.9885 40.1833 44.6462 39.8432C44.3039 39.5031 43.8405 39.3129 43.358 39.3145Z" fill="#19B536"/>
<path d="M98.2878 42.6434C101.009 42.6416 103.72 42.6286 106.43 42.636C107.207 42.5754 107.988 42.692 108.714 42.9771C109.44 43.2621 110.091 43.7082 110.619 44.2816C111.996 45.931 111.746 47.8973 111.515 49.886C110.784 56.8481 108.738 64.4541 103.526 69.4456C99.9504 72.7093 95.2569 74.4736 90.4166 74.3737C89.9431 74.3854 89.4929 74.5818 89.1623 74.9209C88.8316 75.26 88.6467 75.7151 88.647 76.1887C88.6474 76.6624 88.8329 77.1171 89.164 77.4558C89.4951 77.7945 89.9455 77.9903 90.4191 78.0013C95.5774 78.0991 100.618 76.4513 104.722 73.3252C108.145 70.4545 110.76 66.7408 112.31 62.5505C113.786 58.6969 114.73 54.6596 115.114 50.5507C115.6 48.2681 115.405 45.893 114.555 43.7196C113.968 42.5078 113.097 41.4558 112.015 40.6531C110.934 39.8504 109.675 39.3208 108.345 39.1093C105.007 38.8201 101.652 38.7826 98.3076 38.9972C98.0688 38.9966 97.8323 39.0431 97.6114 39.1339C97.3906 39.2248 97.1898 39.3583 97.0205 39.5267C96.8513 39.6952 96.7168 39.8953 96.6249 40.1157C96.533 40.3361 96.4854 40.5725 96.4848 40.8113C96.4843 41.0501 96.5308 41.2867 96.6216 41.5075C96.7125 41.7284 96.8459 41.9291 97.0144 42.0984C97.1828 42.2677 97.383 42.4021 97.6034 42.494C97.8238 42.5859 98.0602 42.6335 98.299 42.6341L98.2878 42.6434Z" fill="#19B536"/>
<path d="M75.7759 95.3517L71.1013 94.2806L71.0121 94.355L70.947 94.277L66.2274 95.4176C66.2274 95.4176 65.5999 104.656 62.0846 111.295L70.9158 111.298L71.1537 111.289L79.9848 111.292C76.4047 104.601 75.7759 95.3517 75.7759 95.3517Z" fill="#19B536"/>
<path d="M77.4823 96.0637L64.518 96.0687C64.1185 96.0701 63.7227 95.9927 63.3532 95.8407C62.9837 95.6887 62.6479 95.4652 62.3651 95.183C62.0822 94.9009 61.8578 94.5656 61.7049 94.1966C61.5519 93.8275 61.4734 93.4318 61.4738 93.0323C61.466 92.6242 61.5407 92.2186 61.6933 91.8401C61.846 91.4615 62.0735 91.1175 62.3622 90.829C62.6509 90.5404 62.9949 90.313 63.3736 90.1605C63.7522 90.0081 64.1578 89.9336 64.5659 89.9415L77.5302 89.9365C77.9297 89.9351 78.3256 90.0126 78.6951 90.1646C79.0645 90.3166 79.4004 90.5401 79.6832 90.8222C79.9661 91.1043 80.1905 91.4396 80.3434 91.8087C80.4964 92.1778 80.5749 92.5734 80.5745 92.9729C80.5823 93.3811 80.5076 93.7866 80.3549 94.1652C80.2023 94.5438 79.9748 94.8877 79.6861 95.1762C79.3973 95.4648 79.0533 95.6922 78.6747 95.8447C78.296 95.9971 77.8905 96.0716 77.4823 96.0637Z" fill="#19B536"/>
<path d="M101.648 30.9838L71.0176 31.0231L69.3897 31.0205L40.443 31.0159C40.2334 31.6256 37.2617 91.8588 71.045 90.7953C104.928 91.8223 101.858 31.6211 101.648 30.9838Z" fill="#19B536"/>
<path d="M101.634 30.974C101.683 31.1508 101.709 31.3332 101.709 31.5166C101.748 31.8809 101.793 32.4105 101.812 33.1129C101.891 34.5215 101.941 36.5974 101.895 39.2828C101.792 46.8502 100.932 54.3882 99.3286 61.7843C98.2251 66.9143 96.4573 71.8784 94.0699 76.5511C91.4187 82.0574 86.9913 86.5112 81.5008 89.195C78.4892 90.5315 75.2218 91.1934 71.9275 91.1342C68.5057 91.3286 65.0791 90.8479 61.8428 89.7193C58.5067 88.4472 55.5142 86.4127 53.1043 83.7783C50.6438 81.0862 48.6116 78.032 47.0787 74.7226C43.9186 67.615 41.8648 60.0656 40.9885 52.3366C40.5083 48.635 40.2085 44.9908 40.0463 41.4209C39.9521 39.609 39.9436 37.877 39.9442 36.1561L39.9722 33.5617C40.0106 32.679 39.9953 31.9356 40.1061 30.9357L40.1375 30.7015L40.4367 30.6976C58.5191 30.7318 73.8381 30.7847 84.6671 30.8034L97.2114 30.8841L100.516 30.9246L101.358 30.9593C101.45 30.9554 101.543 30.9603 101.634 30.974C101.535 30.994 101.434 31.0022 101.333 30.9984L100.456 31.012L97.1019 31.07L84.5502 31.1844L40.4911 31.3517L40.5206 31.0246L40.8106 31.123L40.7995 31.2456L40.7923 31.5541L40.7555 32.1897L40.7248 33.4442L40.6801 36.1091C40.6887 37.8412 40.7383 39.5769 40.8156 41.3461C40.9797 44.8955 41.2814 48.5192 41.7633 52.2004C42.6326 59.8617 44.6643 67.3459 47.7884 74.3951C49.289 77.6332 51.2744 80.6235 53.6763 83.2631C56.0143 85.8042 58.9093 87.7691 62.1341 89.0037C65.2891 90.1005 68.6265 90.5766 71.9623 90.4057C75.1601 90.468 78.3331 89.833 81.2606 88.5447C86.6208 85.9316 90.9517 81.5988 93.5624 76.2374C95.9302 71.6327 97.6946 66.742 98.8119 61.6862C100.454 54.3224 101.389 46.8189 101.607 39.2774C101.627 36.6515 101.728 34.5068 101.677 33.1316L101.646 31.5315L101.634 30.974Z" fill="#263238"/>
<g opacity="0.3">
<path d="M101.635 30.9783C101.668 34.7323 101.787 38.2056 101.639 41.6754C100.66 65.0827 94.1361 85.0837 78.5157 89.9707L69.8747 90.9429C69.8747 90.9429 87.3533 82.9362 91.6021 67.1406C95.8509 51.3449 99.2459 31.649 99.2459 31.649L101.635 30.9783Z" fill="black"/>
</g>
<path d="M90.4835 118.049L52.3246 118.038C52.3235 116.798 52.5667 115.57 53.0404 114.424C53.5141 113.278 54.209 112.237 55.0854 111.36C55.9618 110.483 57.0024 109.787 58.1478 109.313C59.2933 108.838 60.521 108.594 61.7608 108.594L81.0586 108.635C82.2985 108.634 83.5264 108.877 84.6722 109.351C85.818 109.825 86.8591 110.519 87.7362 111.396C88.6132 112.272 89.3089 113.313 89.7835 114.458C90.2581 115.604 90.5023 116.831 90.502 118.071L90.4835 118.049Z" fill="#19B536"/>
<path d="M96.749 117.579L45.4688 117.606L45.4822 142.281L96.7624 142.254L96.749 117.579Z" fill="#000759"/>
<path d="M89.114 123.963L52.8418 123.982L52.8484 136.073L89.1205 136.053L89.114 123.963Z" fill="#0C1DE4"/>
<path d="M71.546 46.2668L75.7108 54.7012L85.0279 56.0571L78.2938 62.6218L79.8983 71.9072L71.5548 67.527L63.2227 71.9278L64.8129 62.6421L58.0679 56.0772L67.3833 54.7124L71.546 46.2668Z" fill="white"/>
<path d="M61.2495 85.9495L61.0971 85.9254L60.6826 85.8365C60.1408 85.693 59.6132 85.5005 59.1063 85.2614C58.3212 84.8992 57.5837 84.4415 56.9106 83.8988C56.0189 83.188 55.2104 82.3788 54.5004 81.4864C53.6293 80.4112 52.8537 79.2619 52.1825 78.0517L51.0568 76.0231C50.6977 75.3209 50.3627 74.5796 49.9868 73.8346C48.4938 70.5334 47.2926 67.1079 46.3968 63.5972C45.4876 60.0827 44.7907 56.5166 44.31 52.9183C43.8097 49.5549 43.5624 46.5854 43.3358 44.0711C43.1093 41.5568 42.9964 39.4959 42.9173 38.0873L42.8958 36.4983L42.8621 36.0728L42.875 35.9297L42.8825 36.0746L42.8958 36.4983L43.0177 38.1169C43.1265 39.5386 43.2821 41.5827 43.5087 44.097C43.7352 46.6113 44.0309 49.6161 44.5052 52.9256C44.9829 56.5047 45.671 60.0525 46.5659 63.5506C47.4698 67.0573 48.6746 70.4793 50.167 73.7788C50.5317 74.533 50.8668 75.2743 51.2259 75.9765L52.3312 78.0033C53.0061 79.2055 53.7782 80.3505 54.6398 81.4268C55.3388 82.3206 56.1367 83.1324 57.0183 83.8467C57.6823 84.3883 58.4089 84.8483 59.1824 85.2168C59.6819 85.4601 60.202 85.6587 60.7365 85.8104L61.1491 85.9198L61.2495 85.9495Z" fill="white"/>
<path d="M64.3354 91.2573C64.1257 91.3253 63.9263 91.4217 63.7428 91.5439C63.5246 91.7055 63.3455 91.914 63.2186 92.154C63.0917 92.394 63.0203 92.6595 63.0096 92.9308C63.0041 93.4602 63.1076 93.9852 63.3136 94.473C63.4551 94.8465 63.5575 95.0824 63.5463 95.0917C63.4016 94.9162 63.2872 94.7178 63.2077 94.5047C62.9648 94.0106 62.841 93.4665 62.8461 92.916C62.8644 92.6464 62.9392 92.3837 63.0654 92.1447C63.1917 91.9058 63.3668 91.6961 63.5792 91.5291C63.7224 91.4377 63.8821 91.3751 64.0493 91.3448L64.3354 91.2573Z" fill="white"/>
<path d="M62.7566 109.648C62.7566 109.648 62.5912 109.654 62.2901 109.679C61.8644 109.692 61.4401 109.736 61.0209 109.811C59.6277 110.046 58.3044 110.589 57.1472 111.399C55.9991 112.225 55.0421 113.288 54.3412 114.516C54.1354 114.89 53.9526 115.276 53.7938 115.672C53.7443 115.82 53.6796 115.963 53.6008 116.098L53.6211 115.986L53.7343 115.646C53.8787 115.242 54.0485 114.848 54.2427 114.466C54.9194 113.201 55.8782 112.11 57.0449 111.277C58.5817 110.2 60.41 109.617 62.2863 109.606L62.645 109.628C62.645 109.628 62.7677 109.639 62.7566 109.648Z" fill="white"/>
<path d="M61.0247 109.045C67.8542 108.734 75.4646 109.019 82.3052 108.698L61.0247 109.045Z" fill="#FF725E"/>
<path d="M82.3305 108.679C78.8085 109.199 75.2446 109.382 71.6878 109.223C68.9058 109.219 66.3931 109.199 64.124 109.221C63.0819 109.29 62.0354 109.237 61.0055 109.063C64.5243 108.54 68.0849 108.354 71.639 108.508L79.212 108.521C80.2542 108.465 81.2993 108.518 82.3305 108.679Z" fill="#263238"/>
<path d="M3.58577 147.853L2.70862 146.712L4.14164 146.597C5.29403 146.505 6.39598 146.085 7.31658 145.386L8.47023 144.516L8.58528 145.949C8.66614 147.1 9.08274 148.201 9.78346 149.117L10.6532 150.27L9.22022 150.386C8.06783 150.477 6.96587 150.897 6.04526 151.596L4.89163 152.466L4.78394 151.02C4.69173 149.873 4.27632 148.774 3.58577 147.853Z" fill="#0C1DE4"/>
<path d="M128.918 80.8529L128.041 79.7117L129.474 79.5967C130.626 79.5054 131.728 79.0852 132.649 78.386L133.802 77.5163L133.91 78.9617C134.007 80.1129 134.426 81.2134 135.121 82.1367L135.985 83.2705L134.552 83.3855C133.4 83.4768 132.298 83.897 131.377 84.5962L130.224 85.466L130.116 84.0205C130.024 82.8726 129.608 81.7744 128.918 80.8529Z" fill="#0C1DE4"/>
<path d="M95.9053 5.84551L95.0406 4.71175L96.4737 4.59668C97.625 4.50063 98.7256 4.08094 99.6486 3.38603L100.802 2.51624L100.917 3.94925C101.004 5.09832 101.42 6.19806 102.115 7.11681L102.985 8.27045L101.552 8.38552C100.4 8.47684 99.2979 8.89703 98.3773 9.59619L97.2236 10.466L97.116 9.02045C97.0246 7.86806 96.6045 6.76612 95.9053 5.84551Z" fill="#0C1DE4"/>
<path d="M49.1362 157.628L48.6359 156.962L49.4669 156.896C50.1363 156.846 50.777 156.604 51.3113 156.198L51.9773 155.697L52.0431 156.528C52.0925 157.198 52.335 157.839 52.7412 158.373L53.2415 159.039L52.4105 159.105C51.7411 159.154 51.1004 159.396 50.5661 159.803L49.9001 160.303L49.8343 159.472C49.7849 158.803 49.5424 158.162 49.1362 157.628Z" fill="#0C1DE4"/>
<path d="M139.999 31.6403L139.499 30.9743L140.33 30.9085C141 30.86 141.641 30.6173 142.175 30.2104L142.848 29.6976L142.906 30.5411C142.963 31.2062 143.208 31.8414 143.612 32.373L144.112 33.039L143.281 33.1048C142.614 33.1635 141.976 33.4051 141.437 33.8029L140.776 34.323L140.698 33.4847C140.653 32.8142 140.41 32.1721 139.999 31.6403Z" fill="#0C1DE4"/>
<path d="M9.40201 103.825L8.32091 101.687L10.7441 101.836C12.679 101.95 14.6063 101.508 16.2984 100.563L18.4106 99.3824L18.269 101.793C18.1566 103.731 18.5954 105.661 19.5345 107.36L20.715 109.472L18.3043 109.33C16.3659 109.212 14.434 109.651 12.7375 110.596L10.6253 111.776L10.7743 109.353C10.8592 107.417 10.3826 105.497 9.40201 103.825Z" fill="#0C1DE4"/>
</svg>
