<svg width="16" height="16" viewBox="0 0 16 16" fill="none" xmlns="http://www.w3.org/2000/svg">
<path d="M10.9971 9.93449L10.9976 9.9805C10.9984 10.6176 10.7693 11.2318 10.3558 11.7012L10.3573 11.6992C9.92658 12.1934 9.3441 12.5159 8.70993 12.6113L8.69505 12.6133V13.7935C8.69505 13.8482 8.67416 13.9008 8.63698 13.9395C8.59981 13.9782 8.54938 14 8.49681 14H8.48865H7.62177C7.56735 13.9994 7.51533 13.9765 7.47685 13.9364C7.43837 13.8964 7.41647 13.8422 7.41585 13.7855V12.6133C7.1266 12.5731 6.84238 12.5003 6.56817 12.3963L6.59649 12.4058C6.1869 12.2631 5.80258 12.0512 5.45889 11.7787L5.46849 11.7862C5.36352 11.7071 5.26273 11.6222 5.16657 11.5317L5.16993 11.5347C5.11649 11.4814 5.07905 11.4413 5.05761 11.4147C5.02291 11.3787 5.00242 11.3305 5.0002 11.2796C4.99798 11.2287 5.01419 11.1787 5.04561 11.1396L5.04513 11.1401L5.70705 10.236C5.72464 10.2124 5.74691 10.1931 5.77234 10.1793C5.79777 10.1654 5.82577 10.1575 5.85441 10.156H5.85489C5.88336 10.1506 5.91271 10.1533 5.93978 10.164C5.96685 10.1747 5.99061 10.1928 6.00849 10.2165L6.00897 10.217L6.02145 10.23C6.45545 10.644 6.9866 10.9314 7.56129 11.0631L7.58337 11.0676C7.72641 11.1016 7.89057 11.1211 8.05905 11.1211L8.08881 11.1216C8.42049 11.1216 8.72769 11.0136 8.98064 10.8296L8.97536 10.8331C9.10295 10.7432 9.2063 10.6208 9.27554 10.4775C9.34478 10.3342 9.37761 10.1748 9.37088 10.0145V10.0165C9.37088 9.88499 9.33488 9.76247 9.27296 9.65896L9.2744 9.66196C9.21589 9.55871 9.14366 9.4646 9.05984 9.38242L9.05936 9.38192C8.94779 9.28443 8.8251 9.20163 8.69409 9.13539L8.68353 9.13039C8.51201 9.03905 8.37121 8.96754 8.26113 8.91586C8.15105 8.86419 7.97969 8.79168 7.74705 8.69834C7.58001 8.627 7.44817 8.57115 7.35153 8.53082C7.25489 8.49048 7.12305 8.4313 6.95601 8.35329C6.78897 8.27528 6.65505 8.20611 6.55425 8.14577C6.45345 8.08543 6.33233 8.00625 6.19089 7.90824C6.06699 7.82507 5.95109 7.72961 5.84481 7.6232L5.84529 7.6237C5.74884 7.52203 5.65752 7.4152 5.57169 7.30366L5.56545 7.29566C5.47455 7.18087 5.39914 7.05368 5.34129 6.91761L5.33745 6.90711C5.2817 6.769 5.23754 6.62611 5.20545 6.48006L5.20209 6.46206C5.16537 6.29441 5.14701 6.12296 5.14737 5.95099V5.92399C5.14737 5.29891 5.38785 4.73184 5.77809 4.31879L5.77761 4.31929C6.21259 3.84817 6.78101 3.53464 7.39953 3.42468L7.41681 3.42218V2.21253C7.41681 2.15402 7.44033 2.10101 7.47777 2.06351C7.49627 2.04343 7.51848 2.02745 7.54306 2.01653C7.56764 2.00562 7.59409 2 7.62081 2H8.49777C8.60721 2 8.69601 2.09251 8.69601 2.20653V2.21503V3.39317C8.96001 3.42218 9.20096 3.47668 9.43184 3.55469L9.4064 3.54719C9.62672 3.6172 9.812 3.69371 9.99008 3.78272L9.96512 3.77172C10.1226 3.85323 10.2565 3.93674 10.3832 4.02975L10.3736 4.02275C10.5016 4.11676 10.5851 4.18144 10.6242 4.21678C10.6632 4.25212 10.6954 4.28329 10.7206 4.31029C10.7552 4.34125 10.7775 4.38442 10.7833 4.43149C10.7892 4.47856 10.7781 4.52622 10.7523 4.56532L10.7528 4.56482L10.2334 5.54294C10.2205 5.57301 10.1999 5.59884 10.174 5.61769C10.148 5.63654 10.1176 5.64769 10.0861 5.64996C10.0556 5.65656 10.0236 5.65576 9.99345 5.6476C9.96332 5.63945 9.93539 5.62417 9.91184 5.60295H9.91232C9.89952 5.58962 9.86848 5.56295 9.8192 5.52294C9.76992 5.48294 9.6864 5.42376 9.56864 5.34542C9.45439 5.26912 9.33559 5.20047 9.21296 5.13989L9.1928 5.13089C9.04505 5.06012 8.89147 5.00338 8.73393 4.96137L8.71377 4.95687C8.53483 4.90584 8.35016 4.87994 8.16465 4.87986C7.80917 4.8629 7.45738 4.96527 7.16193 5.1719L7.16817 5.1679C7.00476 5.28101 6.88314 5.44867 6.8233 5.64333C6.76346 5.83799 6.76896 6.04806 6.83889 6.23903L6.83697 6.23303C6.88113 6.34304 6.94545 6.43605 7.02609 6.51056L7.02705 6.51106C7.10433 6.58657 7.18689 6.65908 7.27329 6.72659L7.28097 6.73209C7.38417 6.8061 7.50273 6.87561 7.62705 6.93362L7.64145 6.93962C7.80209 7.01763 7.93169 7.07797 8.03025 7.12064C8.12881 7.16331 8.27889 7.22465 8.48049 7.30466C8.70769 7.39401 8.88129 7.46435 9.00129 7.51569C9.12128 7.56703 9.28416 7.64521 9.48992 7.75022C9.66324 7.83501 9.83026 7.93313 9.9896 8.04376L9.97568 8.03475C10.1245 8.14477 10.2541 8.25478 10.3774 8.3723L10.3746 8.3693C10.5075 8.49031 10.6208 8.63033 10.711 8.78685L10.7154 8.79485C10.795 8.94137 10.8637 9.11189 10.9136 9.29041L10.9179 9.30741C10.9702 9.48994 11 9.69996 11 9.91699V9.93799V9.93699L10.9971 9.93449Z" fill="#98A2B3"/>
</svg>
