<svg width="16" height="12" viewBox="0 0 16 12" fill="none" xmlns="http://www.w3.org/2000/svg">
<path d="M3.875 11.75C2 11.75 0.5 10.25 0.5 8.375C0.5 6.92188 1.4375 5.65625 2.75 5.21094C2.75 5.14062 2.75 5.07031 2.75 5C2.75 2.9375 4.41406 1.25 6.5 1.25C7.88281 1.25 9.10156 2.02344 9.73438 3.14844C10.0859 2.89062 10.5312 2.75 11 2.75C12.2422 2.75 13.25 3.75781 13.25 5C13.25 5.30469 13.1797 5.5625 13.0859 5.82031C14.4688 6.10156 15.5 7.32031 15.5 8.75C15.5 10.4141 14.1406 11.75 12.5 11.75H3.875ZM5.72656 6.66406C5.49219 6.89844 5.49219 7.25 5.72656 7.46094C5.9375 7.69531 6.28906 7.69531 6.5 7.46094L7.41406 6.54688V9.6875C7.41406 10.0156 7.67188 10.25 7.97656 10.25C8.30469 10.25 8.53906 10.0156 8.53906 9.6875V6.54688L9.45312 7.46094C9.6875 7.69531 10.0391 7.69531 10.25 7.46094C10.4844 7.25 10.4844 6.89844 10.25 6.66406L8.375 4.78906C8.16406 4.57812 7.8125 4.57812 7.57812 4.78906L5.70312 6.66406H5.72656Z" fill="white"/>
</svg>
