<svg width="48" height="48" viewBox="0 0 48 48" fill="none" xmlns="http://www.w3.org/2000/svg">
<path d="M32 23C32 24.125 31.0625 25.1875 29.5625 26C27.375 27.25 23.875 28 20 28C16.25 28 12.9375 27.3125 10.6875 26.1875C10.5625 26.125 10.5 26.0625 10.375 26C8.875 25.1875 8 24.125 8 23C8 20.25 13.3125 18 20 18C26.625 18 32 20.25 32 23ZM20 30C23.5 30 26.75 29.4375 29.25 28.4375C30.25 28 31.1875 27.4375 32 26.8125V29C32 30.125 31.0625 31.1875 29.5625 32C29.4375 32.0625 29.375 32.125 29.25 32.1875C27 33.3125 23.6875 34 20 34C16.0625 34 12.5625 33.25 10.375 32C8.875 31.1875 8 30.125 8 29V26.8125C8.75 27.4375 9.6875 28 10.6875 28.4375C13.1875 29.4375 16.4375 30 20 30ZM32 32.8125V35C32 37.8125 26.625 40 20 40C13.3125 40 8 37.8125 8 35V32.8125C8.75 33.4375 9.6875 34 10.6875 34.4375C13.1875 35.4375 16.4375 36 20 36C23.5 36 26.75 35.4375 29.25 34.4375C30.25 34 31.1875 33.4375 32 32.8125Z" fill="#D0D5DD"/>
<path d="M40 13C40 14.1875 39.0625 15.1875 37.5625 16C35.75 17.0625 33.0625 17.75 29.9375 17.9375C29.6875 17.875 29.4375 17.75 29.25 17.625C26.75 16.625 23.5 16 20 16C19.4375 16 18.9375 16.0625 18.4375 16.0625C18.4375 16.0625 18.375 16.0625 18.375 16C16.875 15.1875 16 14.1875 16 13C16 10.25 21.3125 8 28 8C34.625 8 40 10.25 40 13ZM34 25.4375C35.125 25.125 36.25 24.8125 37.25 24.4375C38.25 24 39.1875 23.4375 40 22.8125V25C40 26.875 37.5625 28.5 34 29.375V25.4375ZM34 23C34 21.6875 33.3125 20.5625 32.4375 19.6875C34.25 19.4375 35.875 19 37.25 18.4375C38.25 18 39.1875 17.4375 40 16.8125V19C40 20.125 39.0625 21.1875 37.5625 22C37.4375 22.0625 37.375 22.125 37.25 22.1875C36.3125 22.6875 35.1875 23.0625 34 23.375V23Z" fill="#D0D5DD" fill-opacity="0.4"/>
<path d="M37 38.6484L39.7734 35.7188C39.793 35.6992 39.8125 35.6797 39.8125 35.6602C39.8125 35.6016 39.7734 35.5625 39.7148 35.5625H38.0938C37.8203 35.5625 37.625 35.3672 37.625 35.0938V31.8125H36.375V35.0938C36.375 35.3672 36.1602 35.5625 35.9062 35.5625H34.2656C34.2266 35.5625 34.1875 35.6016 34.1875 35.6602C34.1875 35.6797 34.1875 35.6992 34.207 35.7188L37 38.6484ZM37.5859 39.3711C37.4297 39.5469 37.2148 39.625 37 39.625C36.7656 39.625 36.5508 39.5469 36.3945 39.3711L33.5234 36.3633C33.3477 36.1875 33.25 35.9336 33.25 35.6602C33.25 35.0938 33.6992 34.625 34.2656 34.625H35.4375V31.8125C35.4375 31.3047 35.8477 30.875 36.375 30.875H37.625C38.1328 30.875 38.5625 31.3047 38.5625 31.8125V34.625H39.7148C40.2812 34.625 40.75 35.0938 40.75 35.6602C40.75 35.9336 40.6328 36.1875 40.457 36.3633L37.5859 39.3711Z" fill="#D0D5DD"/>
</svg>
