<svg width="16" height="16" viewBox="0 0 16 16" fill="none" xmlns="http://www.w3.org/2000/svg">
<path d="M14.2812 2.59375C14.9688 2.90625 15.5 3.5625 15.5 4.375C15.4688 7.5 14.1875 13.1562 8.8125 15.75C8.28125 16 7.6875 16 7.15625 15.75C1.78125 13.1562 0.5 7.5 0.5 4.375C0.46875 3.5625 1 2.90625 1.6875 2.59375L7.21875 0.25C7.71875 0.0625 8.28125 0.0625 8.78125 0.25L14.2812 2.59375ZM7.5 1.21875L2.0625 3.53125C1.71875 3.65625 1.46875 4 1.5 4.375C1.5 7.3125 2.6875 12.4375 7.5 14.7812V1.21875ZM8.5 14.7812C13.2812 12.4375 14.4688 7.3125 14.5 4.375C14.5 4 14.25 3.65625 13.9062 3.53125L8.5 1.21875V14.7812Z" fill="#D0D5DD"/>
</svg>
