<svg width="18" height="16" viewBox="0 0 18 16" fill="none" xmlns="http://www.w3.org/2000/svg">
<path d="M15.3125 3.0625C15.4688 3.25 15.4375 3.53125 15.25 3.71875C15.0312 3.9375 14.6875 3.875 14.4688 3.65625C13.2188 2.03125 11.2188 1 9.03125 1C5.15625 1 2.03125 4.15625 2.03125 8V8.78125C2.03125 9.0625 2 9.3125 1.96875 9.59375C1.96875 9.84375 1.75 10 1.5 10C1.1875 10 0.96875 9.75 1 9.4375C1 9.21875 1.03125 9 1.03125 8.78125V8C1.03125 3.59375 4.59375 0 9.03125 0C11.5625 0 13.8438 1.21875 15.3125 3.0625ZM16.0312 5.59375C16.3125 5.46875 16.6562 5.59375 16.7188 5.875C16.9062 6.5625 17 7.28125 17 8V8.78125C17 9.03125 17 9.28125 17 9.53125C17 9.8125 16.7812 10 16.5 10C16.2188 10 16 9.78125 16 9.5C16 9.25 16 9.03125 16 8.78125V8C16 7.375 15.9375 6.78125 15.7812 6.21875C15.7188 5.96875 15.8125 5.6875 16.0312 5.59375ZM9.03125 2.5C12.0625 2.5 14.5312 4.96875 14.5312 8V8.78125C14.5312 9.71875 14.4688 10.6562 14.3438 11.5938C14.3125 11.8438 14.0938 12 13.8438 12C13.5312 12 13.3125 11.75 13.3438 11.4375C13.4688 10.5625 13.5312 9.6875 13.5312 8.78125V8C13.5312 5.53125 11.5 3.5 9.03125 3.5C8.46875 3.5 7.9375 3.625 7.46875 3.78125C7.25 3.875 7 3.8125 6.84375 3.65625C6.625 3.40625 6.6875 3.03125 7 2.90625C7.625 2.65625 8.3125 2.5 9.03125 2.5ZM5.5625 4.46875C5.71875 4.65625 5.71875 4.9375 5.53125 5.15625C4.90625 5.9375 4.53125 6.9375 4.53125 8V8.78125C4.53125 9.75 4.40625 10.7188 4.15625 11.6562C4.09375 11.875 3.90625 12 3.6875 12C3.34375 12 3.125 11.6875 3.1875 11.375C3.40625 10.5312 3.53125 9.65625 3.53125 8.78125V8C3.53125 6.65625 4 5.40625 4.84375 4.4375C5.03125 4.21875 5.375 4.25 5.5625 4.46875ZM9.03125 5C10.6875 5 12.0312 6.34375 12.0312 8V8.78125C12.0312 10.0938 11.875 11.375 11.625 12.625C11.5938 12.8438 11.375 13 11.1562 13C10.8125 13 10.5938 12.7188 10.6562 12.4062C10.9062 11.2188 11.0312 10 11.0312 8.78125V8C11.0312 6.90625 10.125 6 9.03125 6C7.90625 6 7.03125 6.90625 7.03125 8V8.78125C7.03125 10.0938 6.84375 11.4062 6.46875 12.6562C6.40625 12.875 6.21875 13 6 13C5.65625 13 5.4375 12.6875 5.53125 12.3438C5.84375 11.1875 6.03125 10 6.03125 8.78125V8C6.03125 6.34375 7.375 5 9.03125 5ZM9.53125 8V8.78125C9.53125 10.8125 9.15625 12.8125 8.40625 14.7188L8.21875 15.1875C8.125 15.4375 7.84375 15.5938 7.59375 15.4688C7.3125 15.375 7.1875 15.0938 7.3125 14.8438L7.46875 14.3438C8.15625 12.5938 8.53125 10.6875 8.53125 8.78125V8C8.53125 7.75 8.75 7.5 9.03125 7.5C9.28125 7.5 9.53125 7.75 9.53125 8Z" fill="#D0D5DD"/>
</svg>
