<svg width="16" height="17" viewBox="0 0 16 17" fill="none" xmlns="http://www.w3.org/2000/svg">
<path d="M11 5C11 3.9375 10.4062 2.96875 9.5 2.40625C8.5625 1.875 7.40625 1.875 6.5 2.40625C5.5625 2.96875 5 3.9375 5 5C5 6.09375 5.5625 7.0625 6.5 7.625C7.40625 8.15625 8.5625 8.15625 9.5 7.625C10.4062 7.0625 11 6.09375 11 5ZM4 5C4 3.59375 4.75 2.28125 6 1.5625C7.21875 0.84375 8.75 0.84375 10 1.5625C11.2188 2.28125 12 3.59375 12 5C12 6.4375 11.2188 7.75 10 8.46875C8.75 9.1875 7.21875 9.1875 6 8.46875C4.75 7.75 4 6.4375 4 5ZM2 16H14C13.9375 13.5312 11.9062 11.5 9.40625 11.5H6.5625C4.0625 11.5 2.03125 13.5312 2 16ZM1 16.0938C1 13 3.46875 10.5 6.5625 10.5H9.40625C12.5 10.5 15 13 15 16.0938C15 16.5938 14.5625 17 14.0625 17H1.90625C1.40625 17 1 16.5938 1 16.0938Z" fill="#D0D5DD"/>
</svg>
