<svg width="176" height="164" viewBox="0 0 176 164" fill="none" xmlns="http://www.w3.org/2000/svg">
<g id="Group 141">
<g id="background-simple">
<path id="Vector" d="M144.827 37.4481C144.827 37.4481 133.932 30.1527 116.39 34.2148C98.8475 38.2769 89.2117 49.1991 77.8204 56.8884C71.8556 60.9115 64.1006 62.5963 57.4152 65.7771C36.0219 75.9323 33.5549 97.067 46.2491 104.535C57.23 110.994 72.9297 111.139 94.8668 105.258C116.804 99.376 132.354 95.7548 148.812 80.6263C165.27 65.4978 158.007 47.4118 144.827 37.4481Z" fill="#9CAF9F"/>
<path id="Vector_2" opacity="0.75" d="M144.827 37.4481C144.827 37.4481 133.932 30.1527 116.39 34.2148C98.8475 38.2769 89.2117 49.1991 77.8204 56.8884C71.8556 60.9115 64.1006 62.5963 57.4152 65.7771C36.0219 75.9323 33.5549 97.067 46.2491 104.535C57.23 110.994 72.9297 111.139 94.8668 105.258C116.804 99.376 132.354 95.7548 148.812 80.6263C165.27 65.4978 158.007 47.4118 144.827 37.4481Z" fill="white"/>
</g>
<g id="Shadow">
<path id="Vector_3" d="M90.9932 163.544C137.661 163.544 175.493 159.291 175.493 154.044C175.493 148.797 137.661 144.544 90.9932 144.544C44.3251 144.544 6.49316 148.797 6.49316 154.044C6.49316 159.291 44.3251 163.544 90.9932 163.544Z" fill="black" fill-opacity="0.08"/>
</g>
<g id="Hourglass">
<path id="Vector_4" d="M50.6485 5.89025C43.6764 16.8546 44.1325 32.0587 51.7519 42.5843C56.8301 49.6043 64.4452 54.3132 70.4921 60.5078C76.539 66.7024 81.135 75.8466 77.9421 83.9005C74.6928 92.0976 65.175 95.4295 58.0508 100.625C50.1904 106.35 44.8543 114.898 43.163 124.474C41.4716 134.05 43.5568 143.909 48.9804 151.98H123.011C123.011 151.98 136.018 127.197 119.297 108.305C102.577 89.413 93.598 89.1089 94.2149 76.7198C94.8317 64.3306 103.502 60.3123 108.459 55.6642C113.416 51.0161 137.564 40.1864 123.32 5.88591L50.6485 5.89025Z" fill="#FAFAFA"/>
<path id="Vector_5" d="M50.6481 5.89021H51.9209H55.6741H70.1224L123.319 5.85111H123.376V5.90324C124.466 8.50038 125.395 11.1626 126.156 13.8745C126.955 16.7139 127.482 19.6232 127.729 22.5626C127.985 25.6352 127.827 28.7283 127.259 31.7589C126.636 34.9004 125.506 37.9198 123.915 40.699C123.09 42.1164 122.157 43.4685 121.126 44.7433C120.073 46.0351 118.933 47.2542 117.716 48.3923C116.482 49.5511 115.191 50.6457 113.845 51.672C112.498 52.7146 111.091 53.6963 109.718 54.7389C109.032 55.2558 108.415 55.8379 107.746 56.42C107.077 57.0021 106.412 57.5451 105.726 58.0925C104.358 59.1872 102.976 60.2645 101.673 61.4765C98.9531 63.834 96.863 66.8319 95.5915 70.1993C94.9805 71.9265 94.595 73.7253 94.4446 75.5512C94.4055 75.9856 94.3447 76.4634 94.3273 76.9239C94.31 77.3844 94.2926 77.8448 94.3273 78.3053C94.3372 79.2298 94.4303 80.1516 94.6054 81.0594C94.9498 82.899 95.7008 84.6384 96.8034 86.1506C97.9381 87.6625 99.2233 89.0554 100.639 90.3079C103.45 92.8752 106.434 95.3296 109.288 97.9794C112.142 100.629 114.935 103.392 117.629 106.316C119.003 107.763 120.288 109.292 121.478 110.894C122.674 112.517 123.714 114.249 124.584 116.068C126.342 119.755 127.422 123.728 127.772 127.797C128.126 131.923 127.883 136.078 127.051 140.134C126.646 142.183 126.115 144.206 125.461 146.19C124.818 148.19 124.034 150.142 123.115 152.032L123.085 152.093H48.9191L48.8887 152.045C45.4171 146.818 43.2879 140.816 42.6898 134.569C42.088 128.569 42.9681 122.513 45.2528 116.932C47.4241 111.598 50.7676 106.82 55.0355 102.953C57.1066 101.125 59.3433 99.4933 61.7167 98.0793C64.0277 96.6458 66.3604 95.3165 68.5629 93.8656C70.7674 92.4876 72.7927 90.8417 74.5924 88.9656C76.3111 87.1231 77.5859 84.9121 78.3196 82.5016C78.9626 80.1498 79.0635 77.6827 78.615 75.2862C78.1864 72.9734 77.4148 70.7376 76.3256 68.6528C75.2839 66.6454 74.0347 64.7526 72.5985 63.0056C71.2121 61.3296 69.7051 59.7572 68.0894 58.301C64.9573 55.4166 61.7471 52.8927 58.8626 50.2993C57.4161 48.9961 56.0477 47.6929 54.7836 46.3592C53.5584 45.0536 52.4289 43.6614 51.4039 42.1933C49.551 39.501 48.1225 36.54 47.1685 33.414C46.3328 30.7144 45.8481 27.9185 45.7263 25.0952C45.6655 24.4523 45.6915 23.818 45.6915 23.1968C45.6915 22.5756 45.6915 21.9718 45.748 21.3854C45.8045 20.7989 45.8349 20.2255 45.8783 19.6478C45.9217 19.07 46.039 18.5531 46.1129 18.0274C46.5928 14.8276 47.572 11.7229 49.0147 8.82678C49.2101 8.37875 49.4335 7.94348 49.6837 7.52357L50.218 6.61566C50.5004 6.13348 50.6524 5.89021 50.6524 5.89021L50.218 6.6287L49.7011 7.52357C49.4569 7.94535 49.2364 8.38043 49.0408 8.82678C47.6111 11.73 46.6438 14.8387 46.1737 18.0405C46.0999 18.5618 46.013 19.1004 45.9478 19.6521C45.8827 20.2038 45.8609 20.7816 45.8175 21.368C45.774 21.9545 45.774 22.5583 45.7697 23.1751C45.7654 23.792 45.748 24.4262 45.8088 25.0691C45.9345 27.8831 46.4236 30.669 47.2641 33.3575C48.2169 36.4724 49.644 39.4218 51.4951 42.1021C52.5176 43.5641 53.6457 44.9492 54.8705 46.2463C56.1302 47.5843 57.4986 48.8875 58.9452 50.1559C61.8296 52.7624 65.0268 55.2602 68.1806 58.149C69.8088 59.6157 71.3275 61.1997 72.7244 62.8883C74.1687 64.648 75.4251 66.5538 76.4734 68.5746C77.5728 70.6723 78.3518 72.9229 78.7844 75.2514C79.2394 77.6737 79.1384 80.1676 78.489 82.5451C77.752 84.9836 76.465 87.2203 74.727 89.0828C72.9185 90.9698 70.8847 92.6272 68.6715 94.0177C66.4603 95.4729 64.1276 96.8022 61.8209 98.2357C59.4576 99.646 57.2298 101.272 55.1659 103.092C50.9241 106.94 47.6003 111.69 45.4396 116.993C43.1687 122.546 42.2961 128.57 42.8983 134.539C43.4965 140.75 45.615 146.717 49.0668 151.915L48.9799 151.867H123.011L122.911 151.928C123.828 150.043 124.609 148.095 125.248 146.098C125.899 144.123 126.427 142.109 126.829 140.069C127.658 136.033 127.9 131.898 127.546 127.793C127.203 123.745 126.13 119.794 124.379 116.129C123.516 114.323 122.485 112.603 121.299 110.99C120.113 109.396 118.834 107.873 117.468 106.429C114.789 103.512 112.013 100.738 109.14 98.1054C106.291 95.4599 103.315 93.0098 100.496 90.4295C99.0688 89.1667 97.7721 87.7638 96.6253 86.2418C95.5011 84.7113 94.7311 82.95 94.3708 81.0855C94.1968 80.1642 94.1024 79.2297 94.0884 78.2923C94.0667 77.8274 94.0884 77.3626 94.0884 76.8978C94.0884 76.433 94.1666 75.9725 94.2014 75.5121C94.3608 73.6753 94.755 71.8664 95.3743 70.1298C96.6568 66.7327 98.7665 63.7092 101.512 61.3331C102.816 60.1255 104.21 59.0308 105.578 57.9404C106.265 57.3931 106.938 56.8414 107.594 56.2767C108.25 55.712 108.897 55.1038 109.575 54.5825C110.956 53.5399 112.359 52.5582 113.702 51.52C115.043 50.4983 116.332 49.4094 117.564 48.2576C118.773 47.1247 119.907 45.9129 120.956 44.6303C121.98 43.36 122.908 42.0154 123.732 40.6077C125.315 37.8478 126.439 34.849 127.06 31.7285C127.625 28.7226 127.784 25.6544 127.533 22.6061C127.29 19.6671 126.768 16.7579 125.974 13.918C125.223 11.1985 124.306 8.52773 123.228 5.92062L123.302 5.9684L70.1354 5.92931H55.6784H51.9165L50.6481 5.89021Z" fill="#263238"/>
<path id="Vector_6" d="M120.366 25.999C131.269 27.7931 114.08 47.1066 104.345 54.7261C98.6977 59.1353 92.6595 63.9224 89.9836 70.5601C86.9428 78.0926 89.1973 86.5548 87.729 94.1308C87.6817 94.3921 87.5373 94.6257 87.3248 94.7849C87.1124 94.9441 86.8475 95.017 86.5835 94.9889C86.3195 94.9609 86.0759 94.834 85.9016 94.6337C85.7273 94.4334 85.6352 94.1746 85.6439 93.9093C85.7134 88.9354 85.5831 83.9658 84.7751 79.0701C83.6065 72.1196 80.9393 65.2604 76.087 60.1735C72.1122 56.0163 66.9037 53.2578 62.6683 49.3742C56.4824 43.7053 50.1271 36.3942 49.5059 28.0276C49.5059 28.0276 61.3825 18.4708 67.9767 19.6654C75.683 21.0772 83.2677 32.9668 95.2051 31.6071C103.511 30.6558 107.72 23.9225 120.366 25.999Z" fill="#19B536"/>
<path id="Vector_7" d="M121.335 129.365C121.061 126.637 120.331 123.553 117.912 122.267C116.448 121.485 114.662 121.572 113.055 121.993C111.448 122.415 109.94 123.149 108.35 123.622C105.19 124.552 101.814 124.444 98.7196 123.314C95.7613 122.228 93.2244 120.273 90.466 118.718C87.7075 117.163 84.506 116.025 81.4478 116.785C76.1741 118.088 73.4287 124.448 68.2158 125.981C65.8961 126.659 63.407 126.277 61.0525 125.747C58.698 125.217 56.3305 124.526 53.9196 124.617C52.0256 124.687 50.0578 125.343 48.7328 126.637L48.6981 126.676C48.4775 126.892 48.2768 127.128 48.0986 127.38C46.4826 129.552 46.222 132.432 46.7215 135.065C47.2776 138.014 48.6546 140.738 50.1316 143.349C51.8692 146.424 53.8501 149.482 56.7258 151.533C60.2793 154.065 64.7406 152.319 69.089 152.662C79.2236 153.462 90.1271 154.005 100.266 153.223C105.622 152.788 110.64 153.388 114.888 150.099C117.877 147.788 119.823 144.304 120.761 140.647C121.7 136.989 121.713 133.123 121.335 129.365Z" fill="#19B536"/>
<g id="Group" opacity="0.24">
<path id="Vector_8" opacity="0.24" d="M102.203 124.144C101.634 125.013 101.387 126.194 101.938 127.08C102.49 127.966 103.242 128.779 103.476 129.8C103.854 131.398 102.89 132.962 102.173 134.443C100.846 137.092 100.345 140.078 100.735 143.014C101.146 145.96 102.667 148.638 104.988 150.499C106.017 151.294 107.355 151.911 108.598 151.52C109.766 151.155 110.518 149.969 110.77 148.766C111.022 147.562 110.809 146.324 110.657 145.112C109.949 139.464 110.096 133.741 111.091 128.136C111.256 127.202 111.413 126.133 110.822 125.39C110.396 124.958 109.855 124.656 109.262 124.522C107.003 123.77 104.566 124.604 102.225 124.161" fill="black"/>
</g>
<path id="Vector_9" d="M43.5454 155.343C43.5454 155.343 43.3412 151.946 47.7721 150.052H125.639C125.639 150.052 129.701 152.111 130.2 155.264L43.5454 155.343Z" fill="#000759"/>
<path id="Vector_10" d="M123.984 6.30301L123.858 6.35948L50.639 5.89032C50.639 5.89032 50.3784 5.72525 49.9918 5.41683C49.5353 5.05926 49.2023 4.56774 49.0395 4.01126C48.8766 3.45477 48.8921 2.86126 49.0838 2.31404C49.2755 1.76682 49.6337 1.29335 50.1082 0.960103C50.5827 0.626852 51.1496 0.450549 51.7294 0.455938L122.798 1.02935C125.721 1.05541 126.642 5.05193 123.984 6.30301Z" fill="#000759"/>
<g id="Group_2" opacity="0.24">
<path id="Vector_11" opacity="0.24" d="M112.255 34.2353C112.402 34.5177 111.851 35.1041 110.804 36.0598C109.757 37.0155 108.197 38.2709 106.26 39.8478C103.934 41.7697 101.465 43.5123 98.8751 45.0606C97.2663 45.9922 95.5733 46.7703 93.8187 47.3847C92.8678 47.7134 91.8972 47.9818 90.9125 48.1883C89.8782 48.408 88.8279 48.5445 87.7718 48.5967C85.6316 48.7131 83.489 48.4182 81.4599 47.7279C79.6659 47.0754 77.9613 46.1997 76.3861 45.1214C74.9265 44.1571 73.671 43.2014 72.4764 42.2848C71.2818 41.3682 70.2175 40.4864 69.2532 39.6523C65.4087 36.3204 63.3844 33.8704 63.7753 33.3969C64.1663 32.9234 66.903 34.4655 71.1602 37.0719L74.6354 39.2005C75.8822 39.9564 77.2158 40.7948 78.5798 41.568C79.9333 42.3626 81.3677 43.0106 82.8587 43.5011C84.3842 43.958 85.9776 44.1461 87.5676 44.0572C90.9038 43.8834 94.1401 42.7105 96.942 41.3552C99.7439 39.9998 102.281 38.4186 104.479 37.1849C106.218 36.1584 108.037 35.2723 109.918 34.535C111.295 34.0528 112.129 33.9616 112.255 34.2353Z" fill="black"/>
</g>
<path id="Vector_12" d="M85.6955 103.205C86.0033 103.083 86.3469 103.087 86.652 103.216C86.957 103.345 87.199 103.589 87.3255 103.895C87.4519 104.201 87.4527 104.545 87.3277 104.851C87.2027 105.158 86.9618 105.403 86.6574 105.534C86.3529 105.664 86.0093 105.67 85.701 105.549C85.3926 105.428 85.1443 105.19 85.0098 104.887C84.8754 104.585 84.8655 104.241 84.9825 103.931C85.0994 103.621 85.3337 103.37 85.6347 103.231" fill="#19B536"/>
<path id="Vector_13" d="M59.5101 46.3506C59.4149 46.2724 59.3276 46.1851 59.2495 46.0899L58.5414 45.3167C58.2417 44.9735 57.8463 44.5738 57.4423 44.0656L56.0609 42.328C55.5874 41.659 55.0531 40.9379 54.5145 40.156L53.7195 38.8918C53.5848 38.6746 53.4415 38.4574 53.3112 38.2272L52.9289 37.5235C51.7728 35.4746 50.8671 33.2942 50.2312 31.0291C49.5923 28.766 49.2477 26.4299 49.2061 24.0787C49.2061 23.5357 49.2365 23.01 49.2451 22.4931C49.2451 22.2368 49.2452 21.9849 49.2799 21.7372C49.3147 21.4896 49.332 21.2464 49.3581 21.0074C49.4146 20.5296 49.4493 20.0648 49.5145 19.6217C49.5796 19.1786 49.6709 18.7529 49.7447 18.3576C49.8664 17.5452 50.0835 16.8372 50.2356 16.1856C50.3181 15.8728 50.3833 15.5774 50.4658 15.3168L50.7047 14.5913L51.0392 13.5965C51.0712 13.4781 51.1149 13.3631 51.1696 13.2533C51.1517 13.3745 51.1226 13.4938 51.0827 13.6095C51.0088 13.8615 50.9133 14.196 50.7873 14.6174L50.5701 15.3428C50.4962 15.6078 50.4354 15.9032 50.3572 16.2116C50.2182 16.8415 50.014 17.5539 49.9228 18.3836C49.8533 18.7833 49.7838 19.2047 49.71 19.6434C49.6361 20.0822 49.6187 20.5426 49.5666 21.0205C49.5666 21.2594 49.5188 21.4983 49.4928 21.7459C49.4667 21.9935 49.4928 22.2455 49.4667 22.4974C49.4667 23.01 49.4319 23.5313 49.4363 24.07C49.4787 26.4074 49.8188 28.7299 50.4484 30.9813C51.0809 33.2297 51.9746 35.3962 53.1113 37.4366C53.2373 37.6712 53.3633 37.9057 53.4849 38.1403C53.6066 38.3749 53.7586 38.5747 53.8889 38.8006L54.6709 40.0647C55.2008 40.864 55.7264 41.5851 56.1869 42.2367L57.5423 43.9744C57.9332 44.4913 58.3198 44.8953 58.6065 45.2515L59.2842 46.0552C59.3656 46.1488 59.4411 46.2474 59.5101 46.3506Z" fill="#263238"/>
<path id="Vector_14" d="M55.3877 110.886C55.4092 110.836 55.4354 110.788 55.4659 110.742L55.7265 110.334C55.8438 110.152 55.9872 109.934 56.1609 109.674L56.4346 109.239C56.5432 109.096 56.6692 108.953 56.7952 108.805L57.664 107.762C57.9985 107.402 58.3807 107.028 58.7847 106.62C59.7214 105.718 60.717 104.879 61.7647 104.109C64.0714 102.371 67.0471 100.634 70.2704 98.5965C71.9653 97.552 73.5944 96.4045 75.1487 95.1604C76.8161 93.8322 78.2887 92.2763 79.5232 90.5383C81.7827 87.0667 83.0104 83.0251 83.0635 78.8833C83.1186 75.5075 82.5532 72.1504 81.3954 68.9789C80.6286 66.8386 79.6659 64.7737 78.5197 62.8103C78.1157 62.111 77.7855 61.581 77.5597 61.2204L77.3034 60.8121C77.2469 60.7209 77.2208 60.6687 77.2208 60.6687C77.2596 60.7077 77.2931 60.7515 77.3207 60.7991L77.5988 61.1987C77.8377 61.5462 78.1808 62.0675 78.5935 62.7669C79.7753 64.7197 80.7646 66.7827 81.5475 68.9267C82.7363 72.1114 83.3255 75.4886 83.2851 78.8876C83.2667 79.8676 83.1869 80.8455 83.0462 81.8155C82.9054 82.8301 82.692 83.8332 82.4076 84.8172C81.8142 86.9008 80.8918 88.8761 79.6752 90.6686C78.4281 92.4255 76.9393 93.9976 75.253 95.3385C73.6895 96.5837 72.0516 97.7327 70.3486 98.779C67.1122 100.799 64.1322 102.519 61.8256 104.244C60.778 105.004 59.7798 105.829 58.8369 106.716C58.4329 107.12 58.0462 107.484 57.7074 107.841L56.8386 108.861C56.7083 109.018 56.5823 109.161 56.4737 109.296L56.1913 109.709L55.7569 110.356L55.4789 110.751C55.4522 110.798 55.4217 110.843 55.3877 110.886Z" fill="#263238"/>
<path id="Vector_15" d="M51.3479 118.562C51.3217 118.632 51.2898 118.7 51.2524 118.766L50.9396 119.317C50.8006 119.552 50.6355 119.847 50.4661 120.186C50.2967 120.525 50.0795 120.925 49.897 121.381C49.8014 121.607 49.6972 121.841 49.5929 122.085C49.4887 122.328 49.4018 122.597 49.2975 122.866C49.089 123.405 48.924 123.996 48.7328 124.604C47.9772 127.327 47.7168 130.164 47.9639 132.979C48.0378 133.622 48.0899 134.239 48.2028 134.804C48.2506 135.086 48.2897 135.364 48.3462 135.625C48.4027 135.886 48.4635 136.138 48.52 136.376C48.6155 136.859 48.7589 137.28 48.8631 137.654C48.9674 138.027 49.0716 138.349 49.1672 138.609L49.3714 139.209C49.4007 139.277 49.4197 139.348 49.4279 139.422C49.386 139.361 49.3524 139.295 49.3279 139.226C49.2628 139.065 49.1846 138.874 49.0847 138.64C48.9534 138.33 48.8388 138.014 48.7415 137.693C48.6242 137.319 48.4722 136.898 48.3636 136.416C48.3028 136.177 48.2419 135.925 48.1768 135.664C48.1116 135.403 48.0725 135.121 48.016 134.839C47.8944 134.265 47.8336 133.648 47.7554 133.001C47.4835 130.168 47.7458 127.31 48.5286 124.574C48.7241 123.948 48.8979 123.353 49.1194 122.814C49.228 122.545 49.3149 122.28 49.4279 122.032L49.7493 121.324C49.9405 120.89 50.1837 120.486 50.3531 120.138C50.5062 119.84 50.6759 119.55 50.8614 119.27L51.2089 118.735C51.2958 118.618 51.3392 118.557 51.3479 118.562Z" fill="#263238"/>
<path id="Vector_16" d="M105.053 129.005L104.966 129.066L104.696 129.235L103.641 129.869L102.876 130.304C102.59 130.464 102.272 130.612 101.934 130.781C101.247 131.112 100.491 131.533 99.5965 131.872L98.2064 132.441C97.7242 132.632 97.1986 132.784 96.6686 132.967C95.613 133.353 94.4401 133.631 93.2195 133.948C87.8598 135.204 82.3003 135.351 76.8815 134.383C75.6392 134.131 74.4576 133.914 73.3803 133.583C72.8416 133.427 72.3116 133.305 71.8164 133.149L70.4002 132.632C69.4923 132.341 68.7104 131.963 68.011 131.668C67.6635 131.516 67.3377 131.381 67.0466 131.233L66.256 130.821L65.17 130.243L64.892 130.086L64.8008 130.03C64.8008 130.03 64.8399 130.03 64.905 130.069L65.1917 130.204L66.2951 130.742L67.0901 131.133C67.3855 131.272 67.7156 131.398 68.0632 131.546C68.7625 131.824 69.5445 132.193 70.4567 132.471L71.8555 132.98C72.3507 133.145 72.8807 133.262 73.4194 133.414C74.4923 133.735 75.6696 133.94 76.8946 134.187C82.2883 135.121 87.8139 134.974 93.15 133.753C94.3663 133.44 95.5348 133.175 96.5904 132.797C97.1204 132.619 97.6417 132.476 98.1239 132.285L99.514 131.733C100.409 131.403 101.169 130.994 101.855 130.677C102.194 130.512 102.516 130.369 102.802 130.243L103.576 129.808L104.649 129.209L104.931 129.061C105.018 129.013 105.053 129 105.053 129.005Z" fill="#263238"/>
<path id="Vector_17" d="M109.583 37.0631C109.557 37.0946 109.526 37.1223 109.492 37.1456L109.205 37.3802C108.94 37.5931 108.571 37.8928 108.097 38.249C107.133 39.0136 105.734 40.1213 103.966 41.4419C101.909 43.0169 99.7511 44.4564 97.5067 45.7512C96.172 46.4981 94.7805 47.1387 93.3451 47.6669C91.7968 48.2302 90.1817 48.5895 88.5406 48.7355C85.35 48.9146 82.1682 48.2525 79.3139 46.8155C78.0795 46.1885 76.8881 45.4803 75.7474 44.6956C74.6875 43.9484 73.7188 43.2229 72.863 42.5236C71.1254 41.1421 69.7961 39.9736 68.8578 39.1743L67.7848 38.2447L67.5111 38.0014L67.4199 37.9102C67.4199 37.9102 67.459 37.9102 67.5242 37.9797L67.8152 38.2099L68.9143 39.1048C69.87 39.8867 71.234 41.0335 72.9629 42.3976C73.8317 43.0796 74.7918 43.7963 75.856 44.5348C76.9927 45.306 78.1782 46.0025 79.4051 46.62C82.231 48.0285 85.375 48.6768 88.5276 48.5009C90.149 48.3572 91.745 48.0038 93.2756 47.4497C94.7013 46.9285 96.084 46.2967 97.4111 45.56C99.6521 44.2887 101.812 42.88 103.879 41.342C105.652 40.0388 107.064 38.9528 108.05 38.2099L109.183 37.3411L109.483 37.1239C109.513 37.0987 109.547 37.0782 109.583 37.0631Z" fill="#263238"/>
<g id="Group_3" opacity="0.24">
<path id="Vector_18" opacity="0.24" d="M70.4043 132.654C72.4634 131.064 75.3565 131.446 77.9021 131.985C80.4477 132.523 83.0107 133.388 85.5867 133.027C87.5285 132.754 89.3095 131.802 91.2339 131.385C93.1584 130.968 95.4737 131.277 96.538 132.923C88.0316 135.664 78.8654 135.569 70.4173 132.654" fill="black"/>
</g>
</g>
<g id="Character">
<path id="Vector_19" d="M107.131 151.943C107.131 151.943 102.439 151.458 102.439 153.074C102.439 154.69 104.54 155.66 108.587 155.825C110.856 155.937 113.131 155.828 115.379 155.5C115.379 155.5 110.042 152.589 107.131 151.943Z" fill="white"/>
<g id="Clip path group">
<mask id="mask0_1193_5807" style="mask-type:luminance" maskUnits="userSpaceOnUse" x="102" y="151" width="14" height="5">
<g id="clip-path-5">
<path id="Vector_20" d="M107.131 151.943C107.131 151.943 102.439 151.458 102.439 153.074C102.439 154.69 104.54 155.66 108.587 155.825C110.856 155.937 113.131 155.828 115.379 155.5C115.379 155.5 110.042 152.589 107.131 151.943Z" fill="white"/>
</g>
</mask>
<g mask="url(#mask0_1193_5807)">
<g id="Group_4">
<path id="Vector_21" opacity="0.15" d="M107.131 151.943C107.131 151.943 102.439 151.458 102.439 153.074C102.439 154.69 104.54 155.66 108.587 155.825C110.856 155.937 113.131 155.828 115.379 155.5C115.379 155.5 110.042 152.589 107.131 151.943Z" fill="black"/>
</g>
</g>
</g>
<path id="Vector_22" d="M107.131 151.943C107.131 151.943 102.439 151.458 102.439 153.074C102.439 154.69 104.54 155.66 108.587 155.825C110.856 155.937 113.131 155.828 115.379 155.5C115.379 155.5 110.042 152.589 107.131 151.943Z" stroke="#263238" stroke-width="0.25" stroke-linecap="round" stroke-linejoin="round"/>
<path id="Vector_23" d="M130.372 142.07C130.372 142.07 125.7 142.638 124.846 142.638C123.992 142.638 106.71 135.694 103.313 135.694C99.917 135.694 98.4954 142.919 103.454 147.596C108.413 152.273 127.806 158.081 138.31 157.533C148.814 156.985 155.879 149.741 155.879 144.782C155.879 139.823 144.258 143.079 139.586 141.803C134.914 140.527 130.372 142.07 130.372 142.07Z" fill="#000759" stroke="#101B93" stroke-width="0.25" stroke-linecap="round" stroke-linejoin="round"/>
<path id="Vector_24" d="M127.806 144.074C127.806 144.074 132.172 146.907 133.473 149.454" stroke="white" stroke-width="0.25" stroke-linecap="round" stroke-linejoin="round"/>
<path id="Vector_25" d="M159.139 106.651C154.321 100.703 143.836 100.135 136.893 101.265C136.893 101.265 129.241 103.536 127.825 106.792C126.408 110.047 118.776 124.433 118.776 124.433C118.776 124.433 110.043 129.406 106.729 130.682C104.303 131.624 100.693 132.279 98.9657 132.555C97.5586 131.925 93.5849 130.178 92.4641 130.178C91.091 130.178 89.4462 132.924 90.2662 133.744C91.0862 134.564 93.9003 136.417 96.1564 136.252C96.9376 137.043 117.189 133.205 119.295 132.885C121.401 132.565 131.658 118.553 131.658 118.553C131.658 118.553 132.366 131.168 131.517 136.121C130.668 141.075 128.684 141.944 129.251 142.215C129.819 142.487 133.924 144.768 144.127 144.908C154.331 145.049 159.289 141.512 159.289 141.512C159.289 141.512 162.831 123.943 163.399 119.407C163.966 114.87 163.957 112.619 159.139 106.651Z" fill="white"/>
<g id="Clip path group_2">
<mask id="mask1_1193_5807" style="mask-type:luminance" maskUnits="userSpaceOnUse" x="90" y="100" width="74" height="45">
<g id="clip-path-6">
<path id="Vector_26" d="M159.139 106.651C154.321 100.703 143.836 100.135 136.893 101.265C136.893 101.265 129.241 103.536 127.825 106.792C126.408 110.047 118.776 124.433 118.776 124.433C118.776 124.433 110.043 129.406 106.729 130.682C104.303 131.624 100.693 132.279 98.9657 132.555C97.5586 131.925 93.5849 130.178 92.4641 130.178C91.091 130.178 89.4462 132.924 90.2662 133.744C91.0862 134.564 93.9003 136.417 96.1564 136.252C96.9376 137.043 117.189 133.205 119.295 132.885C121.401 132.565 131.658 118.553 131.658 118.553C131.658 118.553 132.366 131.168 131.517 136.121C130.668 141.075 128.684 141.944 129.251 142.215C129.819 142.487 133.924 144.768 144.127 144.908C154.331 145.049 159.289 141.512 159.289 141.512C159.289 141.512 162.831 123.943 163.399 119.407C163.966 114.87 163.957 112.619 159.139 106.651Z" fill="white"/>
</g>
</mask>
<g mask="url(#mask1_1193_5807)">
<g id="Group_5">
<path id="Vector_27" d="M113.91 132.08C113.91 132.08 104.327 134.506 101.004 135.34C99.3589 135.753 97.5103 136.063 96.0645 136.272H96.1469C96.8068 136.941 111.406 134.297 117.16 133.273L113.91 132.08Z" fill="#92E3A9"/>
<path id="Vector_28" opacity="0.5" d="M113.91 132.08C113.91 132.08 104.327 134.506 101.004 135.34C99.3589 135.753 97.5103 136.063 96.0645 136.272H96.1469C96.8068 136.941 111.406 134.297 117.16 133.273L113.91 132.08Z" fill="white"/>
</g>
</g>
</g>
<path id="Vector_29" d="M159.139 106.651C154.321 100.703 143.836 100.135 136.893 101.265C136.893 101.265 129.241 103.536 127.825 106.792C126.408 110.047 118.776 124.433 118.776 124.433C118.776 124.433 110.043 129.406 106.729 130.682C104.303 131.624 100.693 132.279 98.9657 132.555C97.5586 131.925 93.5849 130.178 92.4641 130.178C91.091 130.178 89.4462 132.924 90.2662 133.744C91.0862 134.564 93.9003 136.417 96.1564 136.252C96.9376 137.043 117.189 133.205 119.295 132.885C121.401 132.565 131.658 118.553 131.658 118.553C131.658 118.553 132.366 131.168 131.517 136.121C130.668 141.075 128.684 141.944 129.251 142.215C129.819 142.487 133.924 144.768 144.127 144.908C154.331 145.049 159.289 141.512 159.289 141.512C159.289 141.512 162.831 123.943 163.399 119.407C163.966 114.87 163.957 112.619 159.139 106.651Z" stroke="#263238" stroke-width="0.25" stroke-linecap="round" stroke-linejoin="round"/>
<g id="Vector_30">
<path d="M98.9563 132.57C98.9563 132.57 97.4377 130.144 96.8749 129.659C96.3121 129.174 95.1816 128.853 94.1336 128.451C93.0856 128.048 91.7076 126.51 91.6348 126.917C91.5621 127.325 91.3922 127.805 92.2801 128.528C92.8562 128.993 93.4771 129.399 94.1336 129.741C94.1336 129.741 92.9254 130.624 93.0031 131.755C93.0807 132.885 95.0991 133.21 96.7099 133.448" fill="white"/>
<path d="M98.9563 132.57C98.9563 132.57 97.4377 130.144 96.8749 129.659C96.3121 129.174 95.1816 128.853 94.1336 128.451C93.0856 128.048 91.7076 126.51 91.6348 126.917C91.5621 127.325 91.3922 127.805 92.2801 128.528C92.8562 128.993 93.4771 129.399 94.1336 129.741C94.1336 129.741 92.9254 130.624 93.0031 131.755C93.0807 132.885 95.0991 133.21 96.7099 133.448" stroke="#263238" stroke-width="0.25" stroke-linecap="round" stroke-linejoin="round"/>
</g>
<path id="Vector_31" d="M84.9584 123.342L82.2656 124.351L93.3085 133.506L94.5797 130.998L84.9584 123.342Z" fill="#263238" stroke="#263238" stroke-linecap="round" stroke-linejoin="round"/>
<g id="Vector_32">
<path d="M90.9896 134.336L86.3124 131.027C86.3124 131.027 85.1043 127.32 85.9097 127.242C86.7151 127.165 86.6375 130.061 86.6375 130.061L87.3604 130.624C87.3604 130.624 87.0402 127.965 87.4429 127.883C87.8456 127.8 88.0057 128.451 88.0882 128.931C88.1707 129.411 88.5734 130.707 88.5734 130.707L89.141 131.027C89.0642 130.278 89.0366 129.524 89.0586 128.771C89.141 128.368 89.7039 128.611 89.7863 129.174C89.8688 129.736 90.4316 131.997 90.4316 131.997C90.4316 131.997 91.402 129.256 91.6398 129.979C91.8775 130.702 91.5573 132.24 91.5573 132.24C91.5573 132.24 93.8134 133.608 93.9832 134.336" fill="white"/>
<path d="M90.9896 134.336L86.3124 131.027C86.3124 131.027 85.1043 127.32 85.9097 127.242C86.7151 127.165 86.6375 130.061 86.6375 130.061L87.3604 130.624C87.3604 130.624 87.0402 127.965 87.4429 127.883C87.8456 127.8 88.0057 128.451 88.0882 128.931C88.1707 129.411 88.5734 130.707 88.5734 130.707L89.141 131.027C89.0642 130.278 89.0366 129.524 89.0586 128.771C89.141 128.368 89.7039 128.611 89.7863 129.174C89.8688 129.736 90.4316 131.997 90.4316 131.997C90.4316 131.997 91.402 129.256 91.6398 129.979C91.8775 130.702 91.5573 132.24 91.5573 132.24C91.5573 132.24 93.8134 133.608 93.9832 134.336" stroke="#263238" stroke-width="0.25" stroke-linecap="round" stroke-linejoin="round"/>
</g>
<path id="Vector_33" d="M90.4463 131.997C90.4463 131.997 91.6204 134.777 92.2318 135.141" stroke="#263238" stroke-width="0.25" stroke-linecap="round" stroke-linejoin="round"/>
<path id="Vector_34" d="M89.1357 131.027C89.2623 131.844 89.434 132.654 89.65 133.453" stroke="#263238" stroke-width="0.25" stroke-linecap="round" stroke-linejoin="round"/>
<path id="Vector_35" d="M87.3604 130.624C87.4642 131.227 87.7523 131.783 88.1852 132.216" stroke="#263238" stroke-width="0.25" stroke-linecap="round" stroke-linejoin="round"/>
<path id="Vector_36" d="M136.893 101.28C136.893 101.28 129.261 103.551 127.806 106.806C126.35 110.062 118.757 124.448 118.757 124.448C118.757 124.448 115.584 126.461 111.552 128.455C112.96 129.92 113.955 131.731 114.434 133.705C116.821 133.307 118.679 132.987 119.286 132.9C121.391 132.575 131.648 118.567 131.648 118.567C131.648 118.567 132.357 131.182 131.508 136.136C130.712 140.77 128.931 141.818 129.164 142.167C130.067 143.952 130.067 145.515 135.525 146.048C137.315 146.272 141.658 144.903 144.118 144.937C154.307 145.078 159.28 141.541 159.28 141.541C159.28 141.541 162.822 123.972 163.389 119.436C163.957 114.899 163.957 112.643 159.139 106.685C154.321 100.727 143.817 100.15 136.893 101.28Z" fill="white"/>
<g id="Clip path group_3">
<mask id="mask2_1193_5807" style="mask-type:luminance" maskUnits="userSpaceOnUse" x="111" y="100" width="53" height="47">
<g id="clip-path-7">
<path id="Vector_37" d="M136.893 101.28C136.893 101.28 129.261 103.551 127.806 106.806C126.35 110.062 118.757 124.448 118.757 124.448C118.757 124.448 115.584 126.461 111.552 128.455C112.96 129.92 113.955 131.731 114.434 133.705C116.821 133.307 118.679 132.987 119.286 132.9C121.391 132.575 131.648 118.567 131.648 118.567C131.648 118.567 132.357 131.182 131.508 136.136C130.712 140.77 128.931 141.818 129.164 142.167C130.067 143.952 130.067 145.515 135.525 146.048C137.315 146.272 141.658 144.903 144.118 144.937C154.307 145.078 159.28 141.541 159.28 141.541C159.28 141.541 162.822 123.972 163.389 119.436C163.957 114.899 163.957 112.643 159.139 106.685C154.321 100.727 143.817 100.15 136.893 101.28Z" fill="white"/>
</g>
</mask>
<g mask="url(#mask2_1193_5807)">
<g id="Group_6">
<path id="Vector_38" opacity="0.15" d="M113.91 132.08C116.385 131.202 119.883 129.79 120.795 128.572C122.251 126.631 130.741 114.016 130.741 114.016C131.243 115.606 131.458 117.271 131.377 118.936C129.742 121.149 121.188 132.609 119.286 132.9C118.699 132.987 116.86 133.307 114.434 133.705C114.293 133.153 114.118 132.61 113.91 132.08ZM159.14 106.651C157.291 104.371 154.608 102.881 151.614 101.974C148.892 115.535 145.685 135.622 143.599 137.533C140.688 140.202 136.321 141.657 139.586 141.788C142.852 141.919 143.356 140.93 143.356 142.628C143.392 143.417 143.292 144.206 143.06 144.962C143.412 144.923 143.765 144.906 144.118 144.908C154.307 145.049 159.28 141.512 159.28 141.512C159.28 141.512 162.822 123.943 163.39 119.407C163.957 114.87 163.957 112.619 159.14 106.651Z" fill="black"/>
<path id="Vector_39" d="M130.421 112.561L131.649 118.567L128.966 111.105" stroke="#263238" stroke-width="0.25" stroke-linecap="round" stroke-linejoin="round"/>
</g>
</g>
</g>
<path id="Vector_40" d="M136.893 101.28C136.893 101.28 129.261 103.551 127.806 106.806C126.35 110.062 118.757 124.448 118.757 124.448C118.757 124.448 115.584 126.461 111.552 128.455C112.96 129.92 113.955 131.731 114.434 133.705C116.821 133.307 118.679 132.987 119.286 132.9C121.391 132.575 131.648 118.567 131.648 118.567C131.648 118.567 132.357 131.182 131.508 136.136C130.712 140.77 128.931 141.818 129.164 142.167C130.067 143.952 130.067 145.515 135.525 146.048C137.315 146.272 141.658 144.903 144.118 144.937C154.307 145.078 159.28 141.541 159.28 141.541C159.28 141.541 162.822 123.972 163.389 119.436C163.957 114.899 163.957 112.643 159.139 106.685C154.321 100.727 143.817 100.15 136.893 101.28Z" stroke="#263238" stroke-width="0.25" stroke-linecap="round" stroke-linejoin="round"/>
<path id="Vector_41" d="M149.362 157.814C149.362 157.814 156.955 157.615 161.118 150.731C164.379 145.35 161.118 139.964 155.597 139.396C150.075 138.829 146.271 143.564 141.284 146.189C131.095 151.57 122.439 152.138 116.772 152.846C111.105 153.554 112.095 154.263 117.621 156.242C123.147 158.222 138.732 160.366 149.362 157.814Z" fill="#000759" stroke="#101B93" stroke-width="0.25" stroke-linecap="round" stroke-linejoin="round"/>
<path id="Vector_42" d="M129.936 151.376C129.936 151.376 137.844 149.1 144.685 144.782" stroke="white" stroke-width="0.25" stroke-linecap="round" stroke-linejoin="round"/>
<path id="Vector_43" d="M149.362 157.814C149.362 157.814 155.311 155.835 158.581 148.324" stroke="#0C1DE4" stroke-width="0.25" stroke-linecap="round" stroke-linejoin="round"/>
<g id="Vector_44">
<path d="M103.313 135.714C103.313 135.714 100.48 135.006 98.3545 138.829C96.2294 142.652 97.9275 147.189 103.595 151.444C109.262 155.699 124.409 158.081 124.846 158.081C125.283 158.081 126.69 152.259 126.69 152.259L107.845 138.94" fill="#000759"/>
<path d="M103.313 135.714C103.313 135.714 100.48 135.006 98.3545 138.829C96.2294 142.652 97.9275 147.189 103.595 151.444C109.262 155.699 124.409 158.081 124.846 158.081C125.283 158.081 126.69 152.259 126.69 152.259L107.845 138.94" stroke="#101B93" stroke-width="0.25" stroke-linecap="round" stroke-linejoin="round"/>
</g>
<path id="Vector_45" d="M112.115 141.997L110.528 140.702" stroke="white" stroke-width="0.25" stroke-linecap="round" stroke-linejoin="round"/>
<path id="Vector_46" d="M122.415 150.405L113.992 143.53" stroke="white" stroke-width="0.25" stroke-linecap="round" stroke-linejoin="round"/>
<path id="Vector_47" d="M127.398 153.714C127.398 153.714 137.175 156.97 140.576 156.97C143.977 156.97 153.046 155.84 152.759 158.246C152.473 160.653 149.504 161.08 144.967 160.672C140.431 160.264 125.865 157.96 125.865 157.96L127.398 153.714Z" fill="white"/>
<g id="Clip path group_4">
<mask id="mask3_1193_5807" style="mask-type:luminance" maskUnits="userSpaceOnUse" x="125" y="153" width="28" height="8">
<g id="clip-path-8">
<path id="Vector_48" d="M127.398 153.714C127.398 153.714 137.175 156.97 140.576 156.97C143.977 156.97 153.046 155.84 152.759 158.246C152.473 160.653 149.504 161.08 144.967 160.672C140.431 160.264 125.865 157.96 125.865 157.96L127.398 153.714Z" fill="white"/>
</g>
</mask>
<g mask="url(#mask3_1193_5807)">
<g id="Group_7">
<path id="Vector_49" opacity="0.15" d="M127.398 153.714C127.398 153.714 137.175 156.97 140.576 156.97C143.977 156.97 153.046 155.84 152.759 158.246C152.473 160.653 149.504 161.08 144.967 160.672C140.431 160.264 125.865 157.96 125.865 157.96L127.398 153.714Z" fill="black"/>
</g>
</g>
</g>
<path id="Vector_50" d="M127.398 153.714C127.398 153.714 137.175 156.97 140.576 156.97C143.977 156.97 153.046 155.84 152.759 158.246C152.473 160.653 149.504 161.08 144.967 160.672C140.431 160.264 125.865 157.96 125.865 157.96L127.398 153.714Z" stroke="#263238" stroke-width="0.25" stroke-linecap="round" stroke-linejoin="round"/>
<path id="Vector_51" d="M124.564 150.318L121.59 157.97C123.087 158.283 124.6 158.519 126.122 158.678C127.116 158.678 128.247 152.298 128.247 151.885C128.247 151.473 124.564 150.318 124.564 150.318Z" fill="#0C1DE4" stroke="#000759" stroke-width="0.25" stroke-linecap="round" stroke-linejoin="round"/>
<path id="Vector_52" d="M131.081 82.5808C131.081 82.5808 124.846 84.4197 126.83 86.5448C128.815 88.6699 134.768 87.6801 134.768 87.6801L131.081 82.5808Z" fill="#050938" stroke="#04094D" stroke-width="0.25" stroke-linecap="round" stroke-linejoin="round"/>
<path id="Vector_53" d="M137.742 102.415C137.742 102.415 141.565 111.057 142.419 109.358C143.273 107.66 143.39 99.3004 143.39 99.3004L137.742 102.415Z" stroke="#263238" stroke-linecap="round" stroke-linejoin="round"/>
<path id="Vector_54" d="M132.41 84.7059C130.848 87.3551 130.853 90.8775 131.799 93.9003C132.085 94.8076 130.004 96.1807 130.004 96.7483C130.004 97.316 131.561 97.4567 131.561 97.4567C131.561 97.4567 133.303 103.046 134.72 103.327C136.137 103.609 142.046 100.858 143.036 100.15C144.026 99.4411 143.89 92.3574 142.187 89.3783C140.484 86.3992 135.385 82.2945 132.41 84.7059Z" fill="white"/>
<g id="Clip path group_5">
<mask id="mask4_1193_5807" style="mask-type:luminance" maskUnits="userSpaceOnUse" x="130" y="83" width="14" height="21">
<g id="clip-path-10">
<path id="Vector_55" d="M132.41 84.7059C130.848 87.3551 130.853 90.8775 131.799 93.9003C132.085 94.8076 130.004 96.1807 130.004 96.7483C130.004 97.316 131.561 97.4567 131.561 97.4567C131.561 97.4567 133.303 103.046 134.72 103.327C136.137 103.609 142.046 100.858 143.036 100.15C144.026 99.4411 143.89 92.3574 142.187 89.3783C140.484 86.3992 135.385 82.2945 132.41 84.7059Z" fill="white"/>
</g>
</mask>
<g mask="url(#mask4_1193_5807)">
<g id="Group_8">
<path id="Vector_56" d="M143.036 100.15C144.03 99.4411 143.89 92.3574 142.187 89.3783C141.156 87.7076 139.763 86.2899 138.111 85.2299C136.621 86.9281 135.447 88.3303 135.447 88.3303C135.447 88.3303 138.771 93.8663 139.14 97.9273C139.474 101.654 134.831 102.736 134.079 102.886C134.122 102.938 134.169 102.987 134.22 103.032L134.841 103.342C136.442 103.468 142.07 100.829 143.036 100.15Z" fill="#92E3A9"/>
<path id="Vector_57" opacity="0.5" d="M143.036 100.15C144.03 99.4411 143.89 92.3574 142.187 89.3783C141.156 87.7076 139.763 86.2899 138.111 85.2299C136.621 86.9281 135.447 88.3303 135.447 88.3303C135.447 88.3303 138.771 93.8663 139.14 97.9273C139.474 101.654 134.831 102.736 134.079 102.886C134.122 102.938 134.169 102.987 134.22 103.032L134.841 103.342C136.442 103.468 142.07 100.829 143.036 100.15Z" fill="white"/>
</g>
</g>
</g>
<path id="Vector_58" d="M132.41 84.7059C130.848 87.3551 130.853 90.8775 131.799 93.9003C132.085 94.8076 130.004 96.1807 130.004 96.7483C130.004 97.316 131.561 97.4567 131.561 97.4567C131.561 97.4567 133.303 103.046 134.72 103.327C136.137 103.609 142.046 100.858 143.036 100.15C144.026 99.4411 143.89 92.3574 142.187 89.3783C140.484 86.3992 135.385 82.2945 132.41 84.7059Z" stroke="#263238" stroke-width="0.25" stroke-linecap="round" stroke-linejoin="round"/>
<path id="Vector_59" d="M133.143 93.1434L133.017 94.2787C133.017 94.2787 134.652 94.7639 135.03 94.1526" stroke="#263238" stroke-width="0.25" stroke-linecap="round" stroke-linejoin="round"/>
<path id="Vector_60" d="M132.91 92.4447C132.91 92.4447 133.774 90.9891 135.409 92.3865" stroke="#263238" stroke-width="0.25" stroke-linecap="round" stroke-linejoin="round"/>
<path id="Vector_61" d="M134.526 94.531L133.647 94.9046" stroke="#263238" stroke-width="0.25" stroke-linecap="round" stroke-linejoin="round"/>
<path id="Vector_62" d="M137.461 78.612C137.461 78.612 129.664 79.3203 129.664 82.9787C129.664 86.637 139.8 93.0657 139.8 93.0657L141.566 130.75H153.894C153.894 130.75 153.327 90.0818 153.327 85.9723C153.327 81.8627 144.826 77.3359 137.461 78.612Z" fill="#050938" stroke="#04094D" stroke-width="0.25" stroke-linecap="round" stroke-linejoin="round"/>
<path id="Vector_63" d="M139.8 93.0657C139.8 93.0657 151.604 102.284 153.06 111.668" stroke="white" stroke-width="0.25" stroke-linecap="round" stroke-linejoin="round"/>
<path id="Vector_64" d="M146.728 119.116C146.705 119.701 146.666 120.293 146.611 120.891" stroke="white" stroke-width="0.25" stroke-linecap="round" stroke-linejoin="round"/>
<path id="Vector_65" d="M142.551 95.8216C145.14 102.367 146.554 109.318 146.728 116.355" stroke="white" stroke-width="0.25" stroke-linecap="round" stroke-linejoin="round"/>
<path id="Vector_66" d="M143.035 83.8471C143.035 83.8471 148.916 87.6898 151.89 96.2049" stroke="white" stroke-width="0.25" stroke-linecap="round" stroke-linejoin="round"/>
<path id="Vector_67" d="M152.512 98.2233C152.725 99.0045 152.91 99.8244 153.06 100.674" stroke="white" stroke-width="0.25" stroke-linecap="round" stroke-linejoin="round"/>
<path id="Vector_68" d="M162.113 111.057C163.671 113.327 164.806 114.744 163.957 117.849C163.108 120.954 148.227 142.502 146.383 142.361C144.54 142.22 143.128 141.391 142.274 138.965C141.42 136.539 144.7 132.73 144.7 132.73L154.695 115.224C154.695 115.224 156.592 112.473 158.838 111.551" fill="white"/>
<g id="Clip path group_6">
<mask id="mask5_1193_5807" style="mask-type:luminance" maskUnits="userSpaceOnUse" x="142" y="111" width="23" height="32">
<g id="clip-path-11">
<path id="Vector_69" d="M162.113 111.057C163.671 113.327 164.806 114.744 163.957 117.849C163.108 120.954 148.227 142.502 146.383 142.361C144.54 142.22 143.128 141.391 142.274 138.965C141.42 136.539 144.7 132.73 144.7 132.73L154.695 115.224C154.695 115.224 156.592 112.473 158.838 111.551" fill="white"/>
</g>
</mask>
<g mask="url(#mask5_1193_5807)">
<g id="Group_9">
<path id="Vector_70" opacity="0.15" d="M159.25 117.854C155.558 119.31 143.011 136.291 143.011 136.291C143.011 136.291 142.715 137.63 142.463 139.44C143.327 141.478 144.671 142.225 146.383 142.351C148.004 142.477 159.707 125.855 163.083 119.703C162.923 118.839 162.254 116.661 159.25 117.854Z" fill="black"/>
</g>
</g>
</g>
<path id="Vector_71" d="M162.113 111.057C163.671 113.327 164.806 114.744 163.957 117.849C163.108 120.954 148.227 142.502 146.383 142.361C144.54 142.22 143.128 141.391 142.274 138.965C141.42 136.539 144.7 132.73 144.7 132.73L154.695 115.224C154.695 115.224 156.592 112.473 158.838 111.551" stroke="#263238" stroke-width="0.25" stroke-linecap="round" stroke-linejoin="round"/>
<path id="Vector_72" d="M147.698 136.015C146.727 132.618 140.318 115.365 140.318 114.317C140.318 113.182 140.599 104.681 140.599 104.681L140.032 103.832C140.032 103.832 138.615 101.848 137.907 101.848C137.198 101.848 137.058 102.697 136.776 103.124C136.495 103.551 134.932 103.832 134.646 104.54L134.365 105.249C134.132 105.412 133.936 105.623 133.79 105.867C133.644 106.111 133.55 106.383 133.516 106.666C133.375 107.66 135.782 113.041 136.068 114.458C136.354 115.874 139.891 134.438 140.74 137.98C141.589 141.522 143.714 144.772 144.709 144.772C144.709 144.772 147.261 143.069 147.969 140.944" fill="white"/>
<g id="Clip path group_7">
<mask id="mask6_1193_5807" style="mask-type:luminance" maskUnits="userSpaceOnUse" x="133" y="101" width="15" height="44">
<g id="clip-path-12">
<path id="Vector_73" d="M147.698 136.015C146.727 132.618 140.318 115.365 140.318 114.317C140.318 113.182 140.599 104.681 140.599 104.681L140.032 103.832C140.032 103.832 138.615 101.848 137.907 101.848C137.198 101.848 137.058 102.697 136.776 103.124C136.495 103.551 134.932 103.832 134.646 104.54L134.365 105.249C134.132 105.412 133.936 105.623 133.79 105.867C133.644 106.111 133.55 106.383 133.516 106.666C133.375 107.66 135.782 113.041 136.068 114.458C136.354 115.874 139.891 134.438 140.74 137.98C141.589 141.522 143.714 144.772 144.709 144.772C144.709 144.772 147.261 143.069 147.969 140.944" fill="white"/>
</g>
</mask>
<g mask="url(#mask6_1193_5807)">
<g id="Group_10">
<path id="Vector_74" opacity="0.3" d="M135.631 109.363C135.631 110.479 140.57 136.16 143.709 144.151C143.945 144.473 144.29 144.697 144.68 144.782C144.68 144.782 147.232 143.079 147.94 140.954L147.698 136.015C146.727 132.618 140.313 115.365 140.313 114.317C140.313 113.182 140.594 104.681 140.594 104.681L140.027 103.832C140.027 103.832 135.631 108.073 135.631 109.363Z" fill="#92E3A9"/>
<path id="Vector_75" opacity="0.5" d="M135.631 109.363C135.631 110.479 140.57 136.16 143.709 144.151C143.945 144.473 144.29 144.697 144.68 144.782C144.68 144.782 147.232 143.079 147.94 140.954L147.698 136.015C146.727 132.618 140.313 115.365 140.313 114.317C140.313 113.182 140.594 104.681 140.594 104.681L140.027 103.832C140.027 103.832 135.631 108.073 135.631 109.363Z" fill="white"/>
</g>
</g>
</g>
<path id="Vector_76" d="M147.698 136.015C146.727 132.618 140.318 115.365 140.318 114.317C140.318 113.182 140.599 104.681 140.599 104.681L140.032 103.832C140.032 103.832 138.615 101.848 137.907 101.848C137.198 101.848 137.058 102.697 136.776 103.124C136.495 103.551 134.932 103.832 134.646 104.54L134.365 105.249C134.132 105.412 133.936 105.623 133.79 105.867C133.644 106.111 133.55 106.383 133.516 106.666C133.375 107.66 135.782 113.041 136.068 114.458C136.354 115.874 139.891 134.438 140.74 137.98C141.589 141.522 143.714 144.772 144.709 144.772C144.709 144.772 147.261 143.069 147.969 140.944" stroke="#263238" stroke-width="0.25" stroke-linecap="round" stroke-linejoin="round"/>
<path id="Vector_77" d="M147.699 136.015C147.145 134.166 145.379 129.188 143.759 124.613C141.614 126.971 139.999 128.208 138.863 128.853C139.664 132.91 140.411 136.592 140.741 137.98C141.59 141.522 143.715 144.772 144.71 144.772C144.71 144.772 147.262 143.069 147.97 140.944" fill="white"/>
<g id="Clip path group_8">
<mask id="mask7_1193_5807" style="mask-type:luminance" maskUnits="userSpaceOnUse" x="138" y="124" width="10" height="21">
<g id="clip-path-13">
<path id="Vector_78" d="M147.699 136.015C147.145 134.166 145.379 129.188 143.759 124.613C141.614 126.971 139.999 128.208 138.863 128.853C139.664 132.91 140.411 136.592 140.741 137.98C141.59 141.522 143.715 144.772 144.71 144.772C144.71 144.772 147.262 143.069 147.97 140.944" fill="white"/>
</g>
</mask>
<g mask="url(#mask7_1193_5807)">
<g id="Group_11">
<path id="Vector_79" opacity="0.15" d="M135.632 109.363C135.632 110.479 140.571 136.16 143.71 144.151C143.946 144.473 144.291 144.697 144.681 144.782C144.681 144.782 147.592 142.725 148.305 140.6L147.674 136.015C146.704 132.618 140.29 115.365 140.29 114.317C140.29 113.182 140.571 104.681 140.571 104.681L140.003 103.832C140.003 103.832 135.632 108.073 135.632 109.363Z" fill="black"/>
</g>
</g>
</g>
<path id="Vector_80" d="M147.699 136.015C147.145 134.166 145.379 129.188 143.759 124.613C141.614 126.971 139.999 128.208 138.863 128.853C139.664 132.91 140.411 136.592 140.741 137.98C141.59 141.522 143.715 144.772 144.71 144.772C144.71 144.772 147.262 143.069 147.97 140.944" stroke="#263238" stroke-width="0.25" stroke-linecap="round" stroke-linejoin="round"/>
</g>
<g id="Plants">
<path id="Vector_81" d="M31.5581 56.3305C31.5581 56.3305 31.5581 53.7444 27.9337 50.1201C24.3094 46.4957 21.9805 44.424 21.9805 44.424C21.9805 44.424 20.1658 50.3772 23.5331 54.0016C26.009 56.5512 28.6933 58.8898 31.5581 60.9932V56.3305Z" fill="#92E3A9"/>
<path id="Vector_82" d="M26.2983 72.5019C26.2983 72.5019 26.2983 69.911 22.674 66.2866C19.0496 62.6622 16.7207 60.5905 16.7207 60.5905C16.7207 60.5905 14.9061 66.5486 18.2733 70.173C20.7475 72.723 23.432 75.0602 26.2983 77.1597V72.5019Z" fill="#92E3A9"/>
<path id="Vector_83" d="M31.3298 60.7263C31.3298 60.7263 31.6015 58.1548 35.5898 54.9332C39.578 51.7115 42.1156 49.8969 42.1156 49.8969C42.1156 49.8969 43.2849 56.0103 39.5586 59.2562C36.8233 61.5314 33.9019 63.5732 30.8252 65.3599L31.3298 60.7263Z" fill="#92E3A9"/>
<path id="Vector_84" d="M24.9743 79.8379C24.9743 79.8379 25.5177 77.3052 29.8262 74.5009C34.1347 71.6965 36.842 70.1778 36.842 70.1778C36.842 70.1778 37.366 76.3834 33.3147 79.2217C30.3607 81.1968 27.2462 82.9204 24.0039 84.3745L24.9743 79.8379Z" fill="#92E3A9"/>
<path id="Vector_85" d="M26.1729 100.657C26.1729 100.657 26.1729 98.0665 29.7972 94.4421C33.4216 90.8178 35.7505 88.746 35.7505 88.746C35.7505 88.746 37.5603 94.6993 34.1979 98.3236C31.7219 100.873 29.0376 103.212 26.1729 105.315V100.657Z" fill="#92E3A9"/>
<path id="Vector_86" d="M26.1095 105.737C26.1095 105.737 26.4782 103.176 23.407 99.0708C20.3357 94.9661 18.3222 92.5887 18.3222 92.5887C18.3222 92.5887 15.6828 98.2218 18.4969 102.293C20.5851 105.17 22.9108 107.867 25.4496 110.356L26.1095 105.737Z" fill="#92E3A9"/>
<path id="Vector_87" d="M22.5332 120.798C22.5332 120.798 22.5332 118.207 26.1576 114.582C29.7819 110.958 32.1157 108.886 32.1157 108.886C32.1157 108.886 33.9255 114.844 30.5631 118.469C28.0865 121.018 25.4005 123.355 22.5332 125.455V120.798Z" fill="#92E3A9"/>
<path id="Vector_88" d="M24.9545 134.475C24.9545 134.475 24.2995 131.972 26.8953 127.547C29.4911 123.122 31.2135 120.526 31.2135 120.526C31.2135 120.526 34.474 125.829 32.1354 130.186C30.387 133.28 28.3827 136.223 26.1433 138.983L24.9545 134.475Z" fill="#92E3A9"/>
<path id="Vector_89" d="M31.8879 55.6706C31.7028 58.365 31.3708 61.0472 30.8932 63.7054C29.4619 71.1094 25.8812 75.8836 24.4451 82.5744C23.0089 89.2652 27.1282 97.8724 26.0268 106.46C24.9254 115.048 21.5825 119.822 22.5334 125.552C23.4844 131.283 28.5061 146.809 28.5061 146.809" stroke="#000759" stroke-width="0.25" stroke-linecap="round" stroke-linejoin="round"/>
<path id="Vector_90" d="M31.2959 62.4633L35.2017 59.4648" stroke="#000759" stroke-width="0.25" stroke-linecap="round" stroke-linejoin="round"/>
<path id="Vector_91" d="M31.4759 59.0088L29.8408 56.1025" stroke="#000759" stroke-width="0.25" stroke-linecap="round" stroke-linejoin="round"/>
<path id="Vector_92" d="M24.6641 82.2639C24.6641 82.2639 27.9342 79.8137 31.2966 77.3586" stroke="#000759" stroke-width="0.25" stroke-linecap="round" stroke-linejoin="round"/>
<path id="Vector_93" d="M26.2988 77.1597C26.2988 77.1597 23.5721 71.8226 20.4766 68.2759" stroke="#000759" stroke-width="0.25" stroke-linecap="round" stroke-linejoin="round"/>
<path id="Vector_94" d="M26.2988 104.34C28.1653 100.898 30.5221 97.7451 33.2953 94.9807" stroke="#000759" stroke-width="0.25" stroke-linecap="round" stroke-linejoin="round"/>
<path id="Vector_95" d="M25.6627 107.974C24.6711 105.638 23.4864 103.389 22.1209 101.249C20.2141 98.4352 19.9375 98.0714 19.9375 98.0714" stroke="#000759" stroke-width="0.25" stroke-linecap="round" stroke-linejoin="round"/>
<path id="Vector_96" d="M22.5332 125.552C23.3618 123.496 24.3464 121.506 25.4783 119.599C26.611 117.831 27.8881 116.159 29.2967 114.602" stroke="#000759" stroke-width="0.25" stroke-linecap="round" stroke-linejoin="round"/>
<path id="Vector_97" d="M26.139 138.958C26.139 138.958 25.7557 135.858 27.1094 133.223C28.463 130.589 30.0205 127.139 30.6561 125.776" stroke="#000759" stroke-width="0.25" stroke-linecap="round" stroke-linejoin="round"/>
<path id="Vector_98" d="M7.82741 90.9197C7.82741 90.9197 7.546 89.2943 9.42853 86.6306C11.3111 83.9669 12.5434 82.4094 12.5434 82.4094C12.5434 82.4094 14.3241 85.9465 12.6065 88.5859C11.3249 90.4546 9.88852 92.2123 8.3126 93.8405L7.82741 90.9197Z" fill="#92E3A9"/>
<path id="Vector_99" d="M12.8782 100.512C12.8782 100.512 12.5968 98.8865 14.4745 96.2228C16.3522 93.5591 17.5894 92.0016 17.5894 92.0016C17.5894 92.0016 19.3749 95.5387 17.6574 98.1781C16.3815 100.043 14.9516 101.797 13.3828 103.423L12.8782 100.512Z" fill="#92E3A9"/>
<path id="Vector_100" d="M8.44375 93.661C8.44375 93.661 7.99252 92.0744 5.14446 90.4878C2.2964 88.9013 0.506051 88.0619 0.506051 88.0619C0.506051 88.0619 0.433269 92.021 3.12607 93.6561C5.09563 94.7778 7.15509 95.7337 9.28313 96.5139L8.44375 93.661Z" fill="#92E3A9"/>
<path id="Vector_101" d="M14.5037 104.942C14.5037 104.942 13.8875 103.413 10.889 102.137C7.89053 100.861 6.03711 100.196 6.03711 100.196C6.03711 100.196 6.38159 104.141 9.22966 105.485C11.285 106.396 13.4126 107.135 15.5905 107.693L14.5037 104.942Z" fill="#92E3A9"/>
<path id="Vector_102" d="M16.0129 118.129C16.0129 118.129 15.7314 116.504 13.0678 114.626C10.4041 112.748 8.70105 111.715 8.70105 111.715C8.70105 111.715 8.21586 115.645 10.7146 117.537C12.5444 118.867 14.4822 120.043 16.5077 121.05L16.0129 118.129Z" fill="#92E3A9"/>
<path id="Vector_103" d="M16.605 121.307C16.605 121.307 16.1198 119.74 17.5754 116.834C19.0309 113.927 20.0595 112.215 20.0595 112.215C20.0595 112.215 22.3302 115.465 21.0299 118.318C20.0343 120.353 18.8689 122.301 17.5462 124.141L16.605 121.307Z" fill="#92E3A9"/>
<path id="Vector_104" d="M21.1512 134.402C21.1512 134.402 21.3404 132.767 23.8974 130.739C26.4543 128.711 28.0748 127.571 28.0748 127.571C28.0748 127.571 28.7881 131.452 26.3961 133.514C24.6467 134.946 22.7803 136.228 20.8164 137.347L21.1512 134.402Z" fill="#92E3A9"/>
<path id="Vector_105" d="M20.4816 130.366C20.4816 130.366 20.2002 128.74 17.5316 126.862C14.8631 124.985 13.1649 123.951 13.1649 123.951C13.1649 123.951 12.6797 127.881 15.1785 129.774C17.0082 131.104 18.946 132.279 20.9716 133.286L20.4816 130.366Z" fill="#92E3A9"/>
<path id="Vector_106" d="M20.4426 139.186C20.4426 139.186 20.5833 137.546 18.5019 135.052C16.4204 132.559 15.0279 131.122 15.0279 131.122C15.0279 131.122 13.5723 134.8 15.5131 137.28C16.9469 139.026 18.5244 140.649 20.2291 142.131L20.4426 139.186Z" fill="#92E3A9"/>
<path id="Vector_107" d="M7.5459 90.5364C7.95302 92.2074 8.45191 93.8546 9.04028 95.4707C10.7433 99.9587 13.5089 102.564 15.1294 106.601C16.7499 110.638 15.1294 116.484 16.7354 121.753C18.3414 127.023 20.9711 129.647 20.9954 133.349C21.0196 137.051 19.5398 147.323 19.5398 147.323" stroke="#000759" stroke-width="0.25" stroke-linecap="round" stroke-linejoin="round"/>
<path id="Vector_108" d="M8.65227 94.7333L5.88184 93.2777" stroke="#000759" stroke-width="0.25" stroke-linecap="round" stroke-linejoin="round"/>
<path id="Vector_109" d="M8.16699 92.5887L8.87537 90.5897" stroke="#000759" stroke-width="0.25" stroke-linecap="round" stroke-linejoin="round"/>
<path id="Vector_110" d="M14.9642 106.431C14.9642 106.431 12.645 105.247 10.2725 104.078" stroke="#000759" stroke-width="0.25" stroke-linecap="round" stroke-linejoin="round"/>
<path id="Vector_111" d="M13.3828 103.423C14.0664 101.265 14.9687 99.1824 16.0756 97.2077" stroke="#000759" stroke-width="0.25" stroke-linecap="round" stroke-linejoin="round"/>
<path id="Vector_112" d="M16.3328 120.453C14.79 118.497 12.9709 116.776 10.9326 115.344" stroke="#000759" stroke-width="0.25" stroke-linecap="round" stroke-linejoin="round"/>
<path id="Vector_113" d="M17.1289 122.661C17.4956 121.088 17.9938 119.55 18.6184 118.061C19.5112 116.086 19.6422 115.829 19.6422 115.829" stroke="#000759" stroke-width="0.25" stroke-linecap="round" stroke-linejoin="round"/>
<path id="Vector_114" d="M20.8691 136.154C20.8691 136.154 22.708 133.898 23.8531 133.054C24.5435 132.545 25.1924 131.982 25.7938 131.37" stroke="#000759" stroke-width="0.25" stroke-linecap="round" stroke-linejoin="round"/>
<path id="Vector_115" d="M20.9958 133.349C20.2514 132.156 19.4177 131.021 18.502 129.953C17.6093 128.956 16.6356 128.034 15.5908 127.197" stroke="#000759" stroke-width="0.25" stroke-linecap="round" stroke-linejoin="round"/>
<path id="Vector_116" d="M20.1954 142.141C20.1004 140.889 19.6733 139.685 18.9582 138.653C17.818 137.149 16.474 135.154 15.9258 134.368" stroke="#000759" stroke-width="0.25" stroke-linecap="round" stroke-linejoin="round"/>
<path id="Vector_117" d="M12.1553 145.528H35.8665V153.727C35.8665 154.178 35.6876 154.61 35.3691 154.928C35.0506 155.247 34.6187 155.426 34.1683 155.426H13.8534C13.4031 155.426 12.9711 155.247 12.6527 154.928C12.3342 154.61 12.1553 154.178 12.1553 153.727V145.528Z" fill="#000759"/>
<path id="Vector_118" d="M35.6577 148.623H12.1552C11.6623 148.623 11.1896 148.427 10.8412 148.079C10.4927 147.73 10.2969 147.258 10.2969 146.765C10.2982 146.273 10.4945 145.802 10.8429 145.454C11.1912 145.107 11.6631 144.912 12.1552 144.912H35.6577C36.1493 144.912 36.6207 145.107 36.9683 145.454C37.3159 145.802 37.5112 146.273 37.5112 146.765C37.5118 147.009 37.4643 147.25 37.3715 147.476C37.2786 147.701 37.1422 147.906 36.97 148.079C36.7978 148.251 36.5933 148.388 36.3681 148.482C36.1429 148.575 35.9015 148.623 35.6577 148.623Z" fill="#000759"/>
<path id="Vector_119" d="M13.0869 148.706H30.1559" stroke="white" stroke-width="0.25" stroke-linecap="round" stroke-linejoin="round"/>
<path id="Vector_120" d="M31.7617 148.706H34.571" stroke="white" stroke-width="0.25" stroke-linecap="round" stroke-linejoin="round"/>
</g>
</g>
</svg>
