<svg width="166" height="139" viewBox="0 0 166 139" fill="none" xmlns="http://www.w3.org/2000/svg">
<path opacity="0.8" d="M126.497 19.4342C126.497 19.4342 116.596 8.06704 98.7315 11.8126C80.867 15.5582 80.8915 32.5214 68.5461 50.2252C62.1483 55.1859 41.1253 56.8443 31.4001 61.9732C8.99221 73.7909 9.07886 90.396 20.734 102.201C30.814 112.424 46.3471 114.332 68.7816 108.527C91.2161 102.723 107.051 99.3739 125.192 80.0796C143.333 60.7854 138.338 34.7778 126.497 19.4342Z" fill="#F5F5FB"/>
<path d="M18.543 137.842L156.975 137.5" stroke="#000759" stroke-width="1.05605" stroke-miterlimit="10"/>
<path d="M124.252 124.297H131.134H135.08H145.425V127.097H143.376L141.714 137.069H127.945L126.301 127.097H124.252V124.297Z" fill="#000759"/>
<path d="M157.469 85.5752C158.767 84.1627 160.458 83.1497 162.337 82.66C162.82 82.5454 165.765 81.875 165.278 83.1565C165.18 83.356 165.03 83.5272 164.843 83.6529C163.203 84.9938 161.293 85.8807 159.522 87.0476C156.869 88.7917 153.645 92.8398 152.314 94.5966C152.14 94.8978 151.926 95.2967 151.679 95.7465C154.084 92.7762 158.448 90.6121 160.131 91.0788C162.219 91.6432 158.174 93.175 154.767 94.6135C153.234 95.2077 151.872 96.1573 150.8 97.3802C150.269 98.3816 149.664 99.5104 149.06 100.656C148.994 100.83 148.925 101 148.855 101.165C149.301 100.463 149.83 99.8133 150.43 99.2303C152.053 97.7409 156.934 96.243 157.73 97.8045C158.526 99.3661 154.85 99.1539 151.874 100.092C150.269 100.64 148.877 101.66 147.889 103.011L147.72 103.253C147.45 103.783 147.193 104.297 146.954 104.789C146.41 105.904 145.89 106.948 145.383 107.966L145.336 108.061C146.148 106.595 147.174 105.251 148.381 104.072C150.761 101.882 154.258 100.962 155.707 101.721C157.156 102.481 151.317 104.259 148.538 105.718C146.945 106.596 145.61 107.859 144.661 109.385C143.909 110.857 143.16 112.308 142.351 113.827C143.763 112.163 145.311 110.614 146.98 109.194C149.682 106.8 152.844 106.593 153.867 107.649C154.889 108.706 152.353 109.16 147.776 110.857C145.367 111.757 143.242 113.256 141.612 115.207C141.268 115.843 140.911 116.497 140.537 117.175C140.111 117.948 139.602 118.746 139.054 119.543C139.802 119.068 140.898 118.381 142.125 117.634C143.501 116.823 144.81 115.91 146.04 114.901C147.454 113.717 149.386 112.393 151.37 112.915C151.519 112.936 151.661 112.988 151.787 113.068C151.913 113.148 152.019 113.254 152.099 113.379C152.178 113.504 152.228 113.644 152.246 113.789C152.263 113.935 152.248 114.083 152.201 114.222C152.056 114.619 151.783 114.959 151.422 115.19C149.551 116.607 147.028 117.277 144.853 118.126C142.843 118.89 140.783 119.525 138.688 120.027C138.175 120.748 137.636 121.466 137.096 122.149L138.075 122.174C139.228 122.208 144.453 119.9 147.106 119.157C149.76 118.415 152.24 119.823 149.46 121.279C146.68 122.734 139.119 122.412 139.119 122.412L136.944 122.348C136.435 122.989 135.93 123.596 135.456 124.152H134.772L136.517 122.157C138.199 119.721 139.376 117.408 138.414 109.729C138.164 107.735 138.915 105.001 139.867 106.66C141.408 109.373 139.867 115.207 138.819 119.037L140.337 116.429C140.815 114.101 141.099 111.74 141.185 109.368C141.32 105.472 140.668 102.26 141.755 101.072C142.843 99.8838 143.452 104.106 142.995 108.71C142.773 110.811 142.199 112.863 141.294 114.782C142.36 112.911 143.417 111.006 144.413 109.164C144.84 108.18 145.845 105.527 145.592 102.833C145.279 99.4382 145.044 96.68 146.367 94.7705C147.689 92.861 147.968 94.1001 147.319 98.0804C146.863 100.805 146.393 104.445 145.579 106.991C146.354 105.54 147.08 104.178 147.728 102.905C148.085 101.658 148.955 98.4495 148.955 95.7847C148.955 92.3985 149.329 90.5611 150.356 91.308C151.069 91.8299 150.608 96.0096 149.46 99.5273C149.999 98.458 150.404 97.6348 150.639 97.1511C150.743 96.9304 150.865 96.6928 151 96.4509C151.375 93.6614 151.93 90.8978 152.662 88.1764C153.967 83.3983 156.281 79.8764 156.212 82.2357C156.142 84.404 152.344 92.0293 151.156 96.1709C151.491 95.5895 151.883 94.9403 152.279 94.3165C152.553 93.6206 152.77 92.8525 153.062 92.2415C153.506 91.3037 153.993 90.3787 154.528 89.4876C155.347 88.0751 156.334 86.7619 157.469 85.5752Z" fill="#19B536"/>
<path d="M137.305 104.293C137.476 104.679 137.514 105.109 137.414 105.519C136.464 110.368 134.151 115.971 131.845 120.375C131.976 121.775 132.05 123.086 132.093 124.152H131.51C131.566 122.941 131.533 121.729 131.41 120.523C130.953 120.07 130.445 119.669 129.896 119.327C126.881 117.294 121.77 117.125 120.412 113.216C120.086 112.27 120.456 111.061 121.613 111.116C122.444 111.15 123.327 111.863 123.845 112.448C125.568 114.388 126.864 116.403 129.109 117.876C129.209 117.944 130.623 119.038 131.323 119.721C131.251 119.085 131.151 118.402 131.023 117.672C130.479 116.734 129.859 115.841 129.17 114.999C127.347 112.779 124.545 111.481 122.561 109.359C121.939 108.71 121.139 106.376 122.996 106.957C123.823 107.216 124.793 108.434 125.437 108.994C127.282 110.59 129.122 112.287 130.327 114.409C130.275 114.205 130.222 113.993 130.175 113.781C128.893 111.778 127.45 109.878 125.859 108.099C123.223 105.171 120.517 103.27 120.473 101.658C120.43 100.045 123.827 102.74 126.716 106.41C128.028 108.092 129.044 109.975 129.722 111.982C129.196 109.902 128.63 107.806 128.073 105.799C127.695 104.793 126.573 102.188 124.506 100.385C121.9 98.1143 119.786 96.243 119.416 93.9643C119.046 91.6856 120.117 92.407 122.427 95.7508C124.014 98.0464 126.224 101.03 127.403 103.423C126.938 101.844 126.499 100.351 126.098 99.0054C125.494 97.847 123.88 94.9275 122.013 92.9798C119.642 90.506 118.633 88.9147 119.908 88.7789C120.791 88.6813 123.379 92.0421 124.998 95.3816C124.632 94.2401 124.367 93.3702 124.197 92.861C124.123 92.6276 124.045 92.3773 123.971 92.1057C122.305 89.8142 120.789 87.4218 119.434 84.9429C117.041 80.5807 116.266 76.4604 117.863 78.2342C119.333 79.8636 121.892 87.9642 123.923 91.7832C123.753 91.1297 123.588 90.3999 123.445 89.6828C123.166 88.9911 122.788 88.2867 122.575 87.6459C122.231 86.6615 121.939 85.6643 121.704 84.6544C121.316 83.077 121.119 81.4605 121.117 79.8382C121.079 77.936 121.611 76.0643 122.648 74.4533C122.923 74.0502 124.606 71.5891 125.124 72.8621C125.19 73.0695 125.202 73.2897 125.159 73.5028C124.915 75.5906 124.136 77.5086 123.658 79.5411C122.927 82.5836 123.405 87.6884 123.658 89.8567C123.753 90.2089 123.867 90.6375 124.001 91.1297C123.666 87.3447 125.35 82.8637 126.903 82.0787C128.83 81.1112 126.942 84.9175 125.454 88.2358C124.748 89.6919 124.418 91.2944 124.493 92.9035C124.798 93.994 125.146 95.2246 125.507 96.4679L125.507 96.4681C125.576 96.6377 125.646 96.8074 125.711 96.9728C125.544 96.1632 125.475 95.3371 125.507 94.5117C125.663 92.3391 128.182 87.9981 129.857 88.6092C131.532 89.2202 128.7 91.5116 127.182 94.1807C126.394 95.6509 126.09 97.3224 126.311 98.9672C126.329 99.0648 126.355 99.1624 126.355 99.2558C126.529 99.8201 126.703 100.372 126.873 100.889C127.264 102.099 127.63 103.245 127.978 104.356C127.55 102.742 127.361 101.075 127.416 99.4085C127.63 96.226 129.539 93.2175 131.132 92.8101C132.724 92.4027 129.7 97.5881 128.687 100.508C128.14 102.211 128.047 104.022 128.417 105.769C128.904 107.348 129.37 108.901 129.84 110.552C129.706 108.396 129.752 106.233 129.979 104.085C130.288 100.542 132.45 98.2798 133.933 98.3732C135.417 98.4665 133.868 100.478 131.723 104.772C130.591 107.033 130.087 109.544 130.262 112.054C130.453 112.75 130.653 113.463 130.853 114.209C131.079 115.058 131.493 117.18 131.649 118.126C131.862 117.286 132.375 115.543 132.749 114.181C133.182 112.674 133.086 110.445 133.281 108.892C133.481 107.085 133.968 104.832 135.782 103.894C135.905 103.809 136.046 103.752 136.194 103.727C136.342 103.701 136.494 103.708 136.639 103.746C136.784 103.784 136.919 103.852 137.034 103.947C137.149 104.041 137.242 104.159 137.305 104.293Z" fill="#19B536"/>
<path d="M77.2155 0.813477H72.9043V134.492H77.2155V0.813477Z" fill="#000759" stroke="#000759" stroke-width="1.05605" stroke-linecap="round" stroke-linejoin="round"/>
<path d="M99.9593 111.328H50.1562L50.7523 106.979H99.0675L99.9593 111.328Z" fill="#000759" stroke="#000759" stroke-width="1.05605" stroke-linecap="round" stroke-linejoin="round"/>
<path d="M104.047 137.789H109.098L85.9106 1.13965H80.8555L104.047 137.789Z" fill="#000759" stroke="#000759" stroke-width="1.05605" stroke-linecap="round" stroke-linejoin="round"/>
<path d="M46.3657 137.789H41.3105L64.2066 1.13965H69.2573L46.3657 137.789Z" fill="#000759" stroke="#000759" stroke-width="1.05605" stroke-linecap="round" stroke-linejoin="round"/>
<path d="M85.3889 80.3682H64.7246V83.4149H85.3889V80.3682Z" fill="#000759" stroke="#000759" stroke-width="1.05605" stroke-linecap="round" stroke-linejoin="round"/>
<path d="M90.5005 3.89844H59.6172V6.94517H90.5005V3.89844Z" fill="#000759" stroke="#000759" stroke-width="1.05605" stroke-linecap="round" stroke-linejoin="round"/>
<path d="M105.384 6.79688H44.4355V77.47H105.384V6.79688Z" fill="white" stroke="#0C1DE4" stroke-width="1.05605" stroke-linecap="round" stroke-linejoin="round"/>
<path d="M109.099 77.1768H41.0156V80.6563H109.099V77.1768Z" fill="#0C1DE4" stroke="#0C1DE4" stroke-width="1.05605" stroke-linecap="round" stroke-linejoin="round"/>
</svg>
