<svg width="16" height="16" viewBox="0 0 16 16" fill="none" xmlns="http://www.w3.org/2000/svg">
<g id="ri:timer-flash-line">
<path id="Vector" d="M4.25467 3.97875C5.31716 3.12746 6.63854 2.66458 8 2.66675C9.41667 2.66675 10.7187 3.15741 11.7453 3.97875L12.714 3.01008L13.6567 3.95275L12.688 4.92141C13.3931 5.80418 13.8347 6.8681 13.9619 7.99074C14.089 9.11338 13.8967 10.2491 13.4069 11.2672C12.9171 12.2854 12.1497 13.1445 11.1932 13.7458C10.2367 14.3471 9.12982 14.6661 8 14.6661C6.87018 14.6661 5.76332 14.3471 4.8068 13.7458C3.85027 13.1445 3.08296 12.2854 2.59315 11.2672C2.10335 10.2491 1.91096 9.11338 2.03813 7.99074C2.16531 6.8681 2.60687 5.80418 3.312 4.92141L2.34334 3.95341L3.286 3.01075L4.25467 3.97941V3.97875ZM8 13.3334C8.61284 13.3334 9.21967 13.2127 9.78586 12.9782C10.352 12.7437 10.8665 12.3999 11.2998 11.9666C11.7332 11.5332 12.0769 11.0188 12.3114 10.4526C12.546 9.88642 12.6667 9.27958 12.6667 8.66675C12.6667 8.05391 12.546 7.44708 12.3114 6.88089C12.0769 6.31471 11.7332 5.80026 11.2998 5.36692C10.8665 4.93358 10.352 4.58983 9.78586 4.35531C9.21967 4.12079 8.61284 4.00008 8 4.00008C6.76233 4.00008 5.57534 4.49175 4.70017 5.36692C3.825 6.24209 3.33334 7.42907 3.33334 8.66675C3.33334 9.90442 3.825 11.0914 4.70017 11.9666C5.57534 12.8417 6.76233 13.3334 8 13.3334ZM8.66667 8.00008H10.6667L7.33334 12.3334V9.33341H5.33334L8.66667 4.99675V8.00008ZM5.33334 0.666748H10.6667V2.00008H5.33334V0.666748Z" fill="#999999"/>
</g>
</svg>
