<svg width="48" height="48" viewBox="0 0 48 48" fill="none" xmlns="http://www.w3.org/2000/svg">
<g id="lets-icons:upload-light">
<path id="Vector" fill-rule="evenodd" clip-rule="evenodd" d="M24 5C21.8779 4.99975 19.801 5.61324 18.0196 6.76653C16.2382 7.91982 14.8284 9.56368 13.96 11.5C13.8386 11.7745 13.7146 12.0479 13.588 12.32C13.5453 12.4093 13.5 12.4974 13.452 12.584C13.3855 12.6923 13.2994 12.7873 13.198 12.864C13.0862 12.9246 12.9642 12.964 12.838 12.98C12.766 12.994 12.618 13 12 13C10.1435 13 8.36301 13.7375 7.05025 15.0503C5.7375 16.363 5 18.1435 5 20C5 21.8565 5.7375 23.637 7.05025 24.9497C8.36301 26.2625 10.1435 27 12 27H13.344L15.344 25H12C10.6739 25 9.40215 24.4732 8.46447 23.5355C7.52678 22.5979 7 21.3261 7 20C7 18.6739 7.52678 17.4021 8.46447 16.4645C9.40215 15.5268 10.6739 15 12 15H12.108C12.56 15 12.934 15 13.232 14.94C13.592 14.868 13.948 14.76 14.284 14.54C14.62 14.324 14.864 14.044 15.08 13.744C15.196 13.584 15.3 13.376 15.394 13.178C15.494 12.966 15.62 12.684 15.78 12.33L15.784 12.32C16.4939 10.7346 17.6473 9.38844 19.1051 8.44389C20.563 7.49935 22.2629 6.99677 24 6.99677C25.7371 6.99677 27.437 7.49935 28.8949 8.44389C30.3527 9.38844 31.5061 10.7346 32.216 12.32L32.22 12.332C32.38 12.684 32.506 12.966 32.606 13.178C32.7 13.376 32.804 13.582 32.92 13.744C33.134 14.044 33.38 14.324 33.716 14.542C34.052 14.76 34.408 14.868 34.768 14.942C35.066 15.002 35.44 15.002 35.892 15H36C37.3261 15 38.5979 15.5268 39.5355 16.4645C40.4732 17.4021 41 18.6739 41 20C41 21.3261 40.4732 22.5979 39.5355 23.5355C38.5979 24.4732 37.3261 25 36 25H32.656L34.656 27H36C36.9193 27 37.8295 26.8189 38.6788 26.4672C39.5281 26.1154 40.2997 25.5998 40.9497 24.9497C41.5998 24.2997 42.1154 23.5281 42.4672 22.6788C42.8189 21.8295 43 20.9193 43 20C43 19.0807 42.8189 18.1705 42.4672 17.3212C42.1154 16.4719 41.5998 15.7003 40.9497 15.0503C40.2997 14.4002 39.5281 13.8846 38.6788 13.5328C37.8295 13.1811 36.9193 13 36 13C35.382 13 35.234 12.994 35.164 12.98C35.0377 12.9634 34.9156 12.9233 34.804 12.862C34.7019 12.7855 34.6151 12.6905 34.548 12.582L34.516 12.528C34.4797 12.4588 34.445 12.3888 34.412 12.318C34.2854 12.0465 34.1614 11.7739 34.04 11.5C33.1716 9.56368 31.7618 7.91982 29.9804 6.76653C28.199 5.61324 26.1221 4.99975 24 5Z" fill="#000759"/>
<path id="Vector_2" d="M24 23.9999L23.292 23.2919L24 22.5859L24.708 23.2919L24 23.9999ZM25 41.9999C25 42.2652 24.8946 42.5195 24.7071 42.707C24.5196 42.8946 24.2652 42.9999 24 42.9999C23.7348 42.9999 23.4804 42.8946 23.2929 42.707C23.1053 42.5195 23 42.2652 23 41.9999H25ZM15.292 31.2919L23.292 23.2919L24.708 24.7079L16.708 32.7079L15.292 31.2919ZM24.708 23.2919L32.708 31.2919L31.292 32.7079L23.292 24.7079L24.708 23.2919ZM25 23.9999V41.9999H23V23.9999H25Z" fill="#000759"/>
</g>
</svg>
