<svg width="20" height="21" viewBox="0 0 20 21" fill="none" xmlns="http://www.w3.org/2000/svg">
<path d="M10 10.5C8.20312 10.5 6.5625 9.5625 5.66406 8C4.76562 6.47656 4.76562 4.5625 5.66406 3C6.5625 1.47656 8.20312 0.5 10 0.5C11.7578 0.5 13.3984 1.47656 14.2969 3C15.1953 4.5625 15.1953 6.47656 14.2969 8C13.3984 9.5625 11.7578 10.5 10 10.5ZM8.20312 12.375H11.7578C15.625 12.375 18.75 15.5 18.75 19.3672C18.75 19.9922 18.2031 20.5 17.5781 20.5H2.38281C1.75781 20.5 1.25 19.9922 1.25 19.3672C1.25 15.5 4.33594 12.375 8.20312 12.375Z" fill="#D0D5DD"/>
</svg>
